M48
; DRILL file {KiCad (5.99.0-6672-g81c853438)} date Saturday, November 14, 2020 at 12:53:08 AM
; FORMAT={-:-/ absolute / inch / decimal}
; #@! TF.CreationDate,2020-11-14T00:53:08+00:00
; #@! TF.GenerationSoftware,Kicad,Pcbnew,(5.99.0-6672-g81c853438)
; #@! TF.FileFunction,Plated,1,2,PTH
FMAT,2
INCH
T1C0.0157
T2C0.0197
T3C0.0320
T4C0.0394
T5C0.0512
%
G90
G05
T1
X3.6238Y-1.8876
X4.2136Y-2.8478
X4.2136Y-3.1475
X4.2628Y-1.8099
X4.9315Y-1.8847
X4.9717Y-2.3999
X5.2206Y-1.8058
X5.6772Y-3.2809
X5.874Y-1.8868
X5.8854Y-2.1292
X6.459Y-3.1479
X6.4593Y-2.8126
X6.482Y-1.7955
X6.8212Y-1.6976
X7.1958Y-1.7955
X7.2065Y-2.8111
X7.2072Y-4.2696
X7.4508Y-2.5393
X7.8201Y-3.6323
X7.9719Y-1.7789
X8.0063Y-3.8983
X8.718Y-3.5319
T2
X8.3465Y-1.874
X8.4252Y-1.874
T3
X8.0796Y-1.6523
X8.0796Y-1.7523
X8.0796Y-1.8523
X8.0796Y-1.9523
X8.0796Y-2.0523
X8.0796Y-2.1523
X8.0796Y-2.2523
X8.0796Y-2.3523
X8.0796Y-2.4523
X8.0796Y-2.5523
X8.0796Y-2.6523
X8.0796Y-2.7523
X8.6796Y-1.6523
X8.6796Y-1.7523
X8.6796Y-1.8523
X8.6796Y-1.9523
X8.6796Y-2.0523
X8.6796Y-2.1523
X8.6796Y-2.2523
X8.6796Y-2.3523
X8.6796Y-2.4523
X8.6796Y-2.5523
X8.6796Y-2.6523
X8.6796Y-2.7523
T4
X7.486Y-2.9685
X7.7931Y-2.9685
X5.9843Y-2.9724
X6.2913Y-2.9724
X4.4882Y-2.9646
X4.7953Y-2.9646
X8.2362Y-3.7087
X8.5433Y-3.7087
X8.2323Y-2.9685
X8.5394Y-2.9685
X4.122Y-2.189
X4.4291Y-2.189
X5.5866Y-2.3031
X5.8937Y-2.3031
X4.122Y-2.2953
X4.4291Y-2.2953
X7.2559Y-2.1969
X7.563Y-2.1969
X6.7244Y-3.7283
X7.0315Y-3.7283
X6.736Y-2.9685
X7.0431Y-2.9685
X6.8071Y-2.2047
X7.1142Y-2.2047
X5.2441Y-2.9724
X5.5512Y-2.9724
X4.8661Y-2.1929
X5.1732Y-2.1929
X6.3622Y-2.2047
X6.6693Y-2.2047
X6.3622Y-2.3071
X6.6693Y-2.3071
X4.8622Y-2.2953
X5.1693Y-2.2953
X7.6811Y-2.1969
X7.9882Y-2.1969
X3.7402Y-2.9685
X4.0472Y-2.9685
X5.5866Y-2.2008
X5.8937Y-2.2008
X7.1102Y-2.311
X7.4173Y-2.311
X7.4921Y-3.7126
X7.7992Y-3.7126
T5
X8.2559Y-2.8583
X8.5118Y-2.8583
T0
M30
