G04 #@! TF.GenerationSoftware,KiCad,Pcbnew,(5.99.0-6672-g81c853438)*
G04 #@! TF.CreationDate,2020-11-14T00:53:03+00:00*
G04 #@! TF.ProjectId,helix,68656c69-782e-46b6-9963-61645f706362,rev?*
G04 #@! TF.SameCoordinates,Original*
G04 #@! TF.FileFunction,Legend,Bot*
G04 #@! TF.FilePolarity,Positive*
%FSLAX46Y46*%
G04 Gerber Fmt 4.6, Leading zero omitted, Abs format (unit mm)*
G04 Created by KiCad (PCBNEW (5.99.0-6672-g81c853438)) date 2020-11-14 00:53:03*
%MOMM*%
%LPD*%
G01*
G04 APERTURE LIST*
G04 #@! TA.AperFunction,Profile*
%ADD10C,0.150000*%
G04 #@! TD*
%ADD11C,0.150000*%
%ADD12C,0.250000*%
%ADD13C,1.524000*%
G04 APERTURE END LIST*
D10*
X222500000Y-112072000D02*
X222500000Y-39700000D01*
X89500000Y-92768000D02*
G75*
G03*
X91000000Y-94268000I1500000J0D01*
G01*
X91000000Y-94268000D02*
X164096000Y-94292000D01*
X164096000Y-94292000D02*
G75*
G02*
X165366000Y-95562000I0J-1270000D01*
G01*
X222500000Y-39700000D02*
G75*
G03*
X221039340Y-38158000I-1460660J79195D01*
G01*
X165366000Y-95562000D02*
X165366000Y-112326000D01*
X89500000Y-39658000D02*
X89500000Y-92768000D01*
X91000000Y-38158000D02*
G75*
G03*
X89500000Y-39658000I0J-1500000D01*
G01*
X166382000Y-113342000D02*
G75*
G02*
X165366000Y-112326000I0J1016000D01*
G01*
X222500000Y-112072000D02*
G75*
G02*
X221230000Y-113342000I-1270000J0D01*
G01*
X221039340Y-38158000D02*
X91000000Y-38158000D01*
X166382000Y-113342000D02*
X221230000Y-113342000D01*
D11*
X212607023Y-43654761D02*
X212464166Y-43702380D01*
X212226071Y-43702380D01*
X212130833Y-43654761D01*
X212083214Y-43607142D01*
X212035595Y-43511904D01*
X212035595Y-43416666D01*
X212083214Y-43321428D01*
X212130833Y-43273809D01*
X212226071Y-43226190D01*
X212416547Y-43178571D01*
X212511785Y-43130952D01*
X212559404Y-43083333D01*
X212607023Y-42988095D01*
X212607023Y-42892857D01*
X212559404Y-42797619D01*
X212511785Y-42750000D01*
X212416547Y-42702380D01*
X212178452Y-42702380D01*
X212035595Y-42750000D01*
X211702261Y-42702380D02*
X211464166Y-43702380D01*
X211273690Y-42988095D01*
X211083214Y-43702380D01*
X210845119Y-42702380D01*
X210511785Y-42797619D02*
X210464166Y-42750000D01*
X210368928Y-42702380D01*
X210130833Y-42702380D01*
X210035595Y-42750000D01*
X209987976Y-42797619D01*
X209940357Y-42892857D01*
X209940357Y-42988095D01*
X209987976Y-43130952D01*
X210559404Y-43702380D01*
X209940357Y-43702380D01*
X208987976Y-43702380D02*
X209559404Y-43702380D01*
X209273690Y-43702380D02*
X209273690Y-42702380D01*
X209368928Y-42845238D01*
X209464166Y-42940476D01*
X209559404Y-42988095D01*
X217130952Y-39864047D02*
X216949523Y-39924523D01*
X216647142Y-39924523D01*
X216526190Y-39864047D01*
X216465714Y-39803571D01*
X216405238Y-39682619D01*
X216405238Y-39561666D01*
X216465714Y-39440714D01*
X216526190Y-39380238D01*
X216647142Y-39319761D01*
X216889047Y-39259285D01*
X217010000Y-39198809D01*
X217070476Y-39138333D01*
X217130952Y-39017380D01*
X217130952Y-38896428D01*
X217070476Y-38775476D01*
X217010000Y-38715000D01*
X216889047Y-38654523D01*
X216586666Y-38654523D01*
X216405238Y-38715000D01*
X215981904Y-38654523D02*
X215679523Y-39924523D01*
X215437619Y-39017380D01*
X215195714Y-39924523D01*
X214893333Y-38654523D01*
X214711904Y-40045476D02*
X213744285Y-40045476D01*
X213502380Y-39864047D02*
X213320952Y-39924523D01*
X213018571Y-39924523D01*
X212897619Y-39864047D01*
X212837142Y-39803571D01*
X212776666Y-39682619D01*
X212776666Y-39561666D01*
X212837142Y-39440714D01*
X212897619Y-39380238D01*
X213018571Y-39319761D01*
X213260476Y-39259285D01*
X213381428Y-39198809D01*
X213441904Y-39138333D01*
X213502380Y-39017380D01*
X213502380Y-38896428D01*
X213441904Y-38775476D01*
X213381428Y-38715000D01*
X213260476Y-38654523D01*
X212958095Y-38654523D01*
X212776666Y-38715000D01*
X212232380Y-39924523D02*
X212232380Y-38654523D01*
X211748571Y-38654523D01*
X211627619Y-38715000D01*
X211567142Y-38775476D01*
X211506666Y-38896428D01*
X211506666Y-39077857D01*
X211567142Y-39198809D01*
X211627619Y-39259285D01*
X211748571Y-39319761D01*
X212232380Y-39319761D01*
X210962380Y-39924523D02*
X210962380Y-38654523D01*
X210660000Y-38654523D01*
X210478571Y-38715000D01*
X210357619Y-38835952D01*
X210297142Y-38956904D01*
X210236666Y-39198809D01*
X210236666Y-39380238D01*
X210297142Y-39622142D01*
X210357619Y-39743095D01*
X210478571Y-39864047D01*
X210660000Y-39924523D01*
X210962380Y-39924523D01*
X209873809Y-38654523D02*
X209148095Y-38654523D01*
X209510952Y-39924523D02*
X209510952Y-38654523D01*
X209950000Y-70900000D02*
X215950000Y-70900000D01*
X209950000Y-74400000D02*
X209950000Y-73700000D01*
X209950000Y-70900000D02*
X209950000Y-71500000D01*
X215950000Y-70900000D02*
X215950000Y-71500000D01*
X215950000Y-74400000D02*
X215950000Y-73700000D01*
X215950000Y-74400000D02*
X209950000Y-74400000D01*
X215950000Y-74400000D02*
X210050000Y-74400000D01*
X105085000Y-48054000D02*
X101475000Y-48054000D01*
X102485000Y-41133000D02*
X106260000Y-41133000D01*
X94185000Y-53962000D02*
X102810000Y-53962000D01*
X106260000Y-45758000D02*
X106284999Y-41158000D01*
X96685000Y-43558001D02*
X96685000Y-38958000D01*
X105085000Y-52008000D02*
X105085000Y-48063000D01*
X94185000Y-50054000D02*
X94185000Y-53962000D01*
X96710000Y-43583000D02*
X99260000Y-43583000D01*
X101265000Y-39658000D02*
X101265000Y-38958000D01*
X101560000Y-45783000D02*
X106260000Y-45783000D01*
X94185000Y-50008000D02*
X99235000Y-49962000D01*
X96710000Y-38933000D02*
X101260000Y-38933000D01*
X101265000Y-39708000D02*
G75*
G03*
X102485000Y-41128000I1320000J-100000D01*
G01*
X105074000Y-52078000D02*
G75*
G02*
X102810000Y-53962000I-2074000J190000D01*
G01*
X101469999Y-48078001D02*
G75*
G02*
X99210000Y-49958000I-2069999J190000D01*
G01*
X101555000Y-45758000D02*
G75*
G03*
X99185000Y-43588000I-2270000J-100000D01*
G01*
X115685000Y-43558001D02*
X115685000Y-38958000D01*
X121485000Y-41133000D02*
X125260000Y-41133000D01*
X120560000Y-45783000D02*
X125260000Y-45783000D01*
X113185000Y-53962000D02*
X121810000Y-53962000D01*
X113185000Y-50054000D02*
X113185000Y-53962000D01*
X113185000Y-50008000D02*
X118235000Y-49962000D01*
X125260000Y-45758000D02*
X125284999Y-41158000D01*
X120265000Y-39658000D02*
X120265000Y-38958000D01*
X124085000Y-52008000D02*
X124085000Y-48063000D01*
X124085000Y-48054000D02*
X120475000Y-48054000D01*
X115710000Y-43583000D02*
X118260000Y-43583000D01*
X115710000Y-38933000D02*
X120260000Y-38933000D01*
X120469999Y-48078001D02*
G75*
G02*
X118210000Y-49958000I-2069999J190000D01*
G01*
X120265000Y-39708000D02*
G75*
G03*
X121485000Y-41128000I1320000J-100000D01*
G01*
X124074000Y-52078000D02*
G75*
G02*
X121810000Y-53962000I-2074000J190000D01*
G01*
X120555000Y-45758000D02*
G75*
G03*
X118185000Y-43588000I-2270000J-100000D01*
G01*
X132185000Y-50008000D02*
X137235000Y-49962000D01*
X143085000Y-52008000D02*
X143085000Y-48063000D01*
X134685000Y-43558001D02*
X134685000Y-38958000D01*
X134710000Y-38933000D02*
X139260000Y-38933000D01*
X139560000Y-45783000D02*
X144260000Y-45783000D01*
X139265000Y-39658000D02*
X139265000Y-38958000D01*
X132185000Y-53962000D02*
X140810000Y-53962000D01*
X140485000Y-41133000D02*
X144260000Y-41133000D01*
X132185000Y-50054000D02*
X132185000Y-53962000D01*
X144260000Y-45758000D02*
X144284999Y-41158000D01*
X134710000Y-43583000D02*
X137260000Y-43583000D01*
X143085000Y-48054000D02*
X139475000Y-48054000D01*
X139555000Y-45758000D02*
G75*
G03*
X137185000Y-43588000I-2270000J-100000D01*
G01*
X139469999Y-48078001D02*
G75*
G02*
X137210000Y-49958000I-2069999J190000D01*
G01*
X139265000Y-39708000D02*
G75*
G03*
X140485000Y-41128000I1320000J-100000D01*
G01*
X143074000Y-52078000D02*
G75*
G02*
X140810000Y-53962000I-2074000J190000D01*
G01*
X158265000Y-39658000D02*
X158265000Y-38958000D01*
X153710000Y-38933000D02*
X158260000Y-38933000D01*
X151185000Y-53962000D02*
X159810000Y-53962000D01*
X158560000Y-45783000D02*
X163260000Y-45783000D01*
X159485000Y-41133000D02*
X163260000Y-41133000D01*
X162085000Y-52008000D02*
X162085000Y-48063000D01*
X162085000Y-48054000D02*
X158475000Y-48054000D01*
X153710000Y-43583000D02*
X156260000Y-43583000D01*
X151185000Y-50008000D02*
X156235000Y-49962000D01*
X153685000Y-43558001D02*
X153685000Y-38958000D01*
X163260000Y-45758000D02*
X163284999Y-41158000D01*
X151185000Y-50054000D02*
X151185000Y-53962000D01*
X158555000Y-45758000D02*
G75*
G03*
X156185000Y-43588000I-2270000J-100000D01*
G01*
X158265000Y-39708000D02*
G75*
G03*
X159485000Y-41128000I1320000J-100000D01*
G01*
X162074000Y-52078000D02*
G75*
G02*
X159810000Y-53962000I-2074000J190000D01*
G01*
X158469999Y-48078001D02*
G75*
G02*
X156210000Y-49958000I-2069999J190000D01*
G01*
X172685000Y-43558001D02*
X172685000Y-38958000D01*
X177560000Y-45783000D02*
X182260000Y-45783000D01*
X181085000Y-52008000D02*
X181085000Y-48063000D01*
X170185000Y-53962000D02*
X178810000Y-53962000D01*
X172710000Y-38933000D02*
X177260000Y-38933000D01*
X172710000Y-43583000D02*
X175260000Y-43583000D01*
X178485000Y-41133000D02*
X182260000Y-41133000D01*
X170185000Y-50054000D02*
X170185000Y-53962000D01*
X181085000Y-48054000D02*
X177475000Y-48054000D01*
X170185000Y-50008000D02*
X175235000Y-49962000D01*
X177265000Y-39658000D02*
X177265000Y-38958000D01*
X182260000Y-45758000D02*
X182284999Y-41158000D01*
X181074000Y-52078000D02*
G75*
G02*
X178810000Y-53962000I-2074000J190000D01*
G01*
X177469999Y-48078001D02*
G75*
G02*
X175210000Y-49958000I-2069999J190000D01*
G01*
X177265000Y-39708000D02*
G75*
G03*
X178485000Y-41128000I1320000J-100000D01*
G01*
X177555000Y-45758000D02*
G75*
G03*
X175185000Y-43588000I-2270000J-100000D01*
G01*
X191685000Y-43558001D02*
X191685000Y-38958000D01*
X201260000Y-45758000D02*
X201284999Y-41158000D01*
X189185000Y-50054000D02*
X189185000Y-53962000D01*
X191710000Y-38933000D02*
X196260000Y-38933000D01*
X200085000Y-52008000D02*
X200085000Y-48063000D01*
X196560000Y-45783000D02*
X201260000Y-45783000D01*
X189185000Y-50008000D02*
X194235000Y-49962000D01*
X200085000Y-48054000D02*
X196475000Y-48054000D01*
X196265000Y-39658000D02*
X196265000Y-38958000D01*
X197485000Y-41133000D02*
X201260000Y-41133000D01*
X191710000Y-43583000D02*
X194260000Y-43583000D01*
X189185000Y-53962000D02*
X197810000Y-53962000D01*
X200074000Y-52078000D02*
G75*
G02*
X197810000Y-53962000I-2074000J190000D01*
G01*
X196555000Y-45758000D02*
G75*
G03*
X194185000Y-43588000I-2270000J-100000D01*
G01*
X196469999Y-48078001D02*
G75*
G02*
X194210000Y-49958000I-2069999J190000D01*
G01*
X196265000Y-39708000D02*
G75*
G03*
X197485000Y-41128000I1320000J-100000D01*
G01*
X96685000Y-62558001D02*
X96685000Y-57958000D01*
X102485000Y-60133000D02*
X106260000Y-60133000D01*
X101560000Y-64783000D02*
X106260000Y-64783000D01*
X94185000Y-72962000D02*
X102810000Y-72962000D01*
X105085000Y-71008000D02*
X105085000Y-67063000D01*
X105085000Y-67054000D02*
X101475000Y-67054000D01*
X101265000Y-58658000D02*
X101265000Y-57958000D01*
X94185000Y-69008000D02*
X99235000Y-68962000D01*
X106260000Y-64758000D02*
X106284999Y-60158000D01*
X94185000Y-69054000D02*
X94185000Y-72962000D01*
X96710000Y-57933000D02*
X101260000Y-57933000D01*
X96710000Y-62583000D02*
X99260000Y-62583000D01*
X101555000Y-64758000D02*
G75*
G03*
X99185000Y-62588000I-2270000J-100000D01*
G01*
X101469999Y-67078001D02*
G75*
G02*
X99210000Y-68958000I-2069999J190000D01*
G01*
X101265000Y-58708000D02*
G75*
G03*
X102485000Y-60128000I1320000J-100000D01*
G01*
X105074000Y-71078000D02*
G75*
G02*
X102810000Y-72962000I-2074000J190000D01*
G01*
X113185000Y-69054000D02*
X113185000Y-72962000D01*
X120265000Y-58658000D02*
X120265000Y-57958000D01*
X120560000Y-64783000D02*
X125260000Y-64783000D01*
X115710000Y-62583000D02*
X118260000Y-62583000D01*
X113185000Y-72962000D02*
X121810000Y-72962000D01*
X125260000Y-64758000D02*
X125284999Y-60158000D01*
X121485000Y-60133000D02*
X125260000Y-60133000D01*
X115710000Y-57933000D02*
X120260000Y-57933000D01*
X124085000Y-71008000D02*
X124085000Y-67063000D01*
X124085000Y-67054000D02*
X120475000Y-67054000D01*
X115685000Y-62558001D02*
X115685000Y-57958000D01*
X113185000Y-69008000D02*
X118235000Y-68962000D01*
X120469999Y-67078001D02*
G75*
G02*
X118210000Y-68958000I-2069999J190000D01*
G01*
X120265000Y-58708000D02*
G75*
G03*
X121485000Y-60128000I1320000J-100000D01*
G01*
X120555000Y-64758000D02*
G75*
G03*
X118185000Y-62588000I-2270000J-100000D01*
G01*
X124074000Y-71078000D02*
G75*
G02*
X121810000Y-72962000I-2074000J190000D01*
G01*
X134710000Y-62583000D02*
X137260000Y-62583000D01*
X132185000Y-72962000D02*
X140810000Y-72962000D01*
X139265000Y-58658000D02*
X139265000Y-57958000D01*
X143085000Y-67054000D02*
X139475000Y-67054000D01*
X139560000Y-64783000D02*
X144260000Y-64783000D01*
X134685000Y-62558001D02*
X134685000Y-57958000D01*
X134710000Y-57933000D02*
X139260000Y-57933000D01*
X143085000Y-71008000D02*
X143085000Y-67063000D01*
X140485000Y-60133000D02*
X144260000Y-60133000D01*
X132185000Y-69008000D02*
X137235000Y-68962000D01*
X132185000Y-69054000D02*
X132185000Y-72962000D01*
X144260000Y-64758000D02*
X144284999Y-60158000D01*
X139555000Y-64758000D02*
G75*
G03*
X137185000Y-62588000I-2270000J-100000D01*
G01*
X139265000Y-58708000D02*
G75*
G03*
X140485000Y-60128000I1320000J-100000D01*
G01*
X143074000Y-71078000D02*
G75*
G02*
X140810000Y-72962000I-2074000J190000D01*
G01*
X139469999Y-67078001D02*
G75*
G02*
X137210000Y-68958000I-2069999J190000D01*
G01*
X162085000Y-71008000D02*
X162085000Y-67063000D01*
X151185000Y-72962000D02*
X159810000Y-72962000D01*
X151185000Y-69054000D02*
X151185000Y-72962000D01*
X153710000Y-57933000D02*
X158260000Y-57933000D01*
X163260000Y-64758000D02*
X163284999Y-60158000D01*
X158560000Y-64783000D02*
X163260000Y-64783000D01*
X162085000Y-67054000D02*
X158475000Y-67054000D01*
X153685000Y-62558001D02*
X153685000Y-57958000D01*
X158265000Y-58658000D02*
X158265000Y-57958000D01*
X159485000Y-60133000D02*
X163260000Y-60133000D01*
X151185000Y-69008000D02*
X156235000Y-68962000D01*
X153710000Y-62583000D02*
X156260000Y-62583000D01*
X158555000Y-64758000D02*
G75*
G03*
X156185000Y-62588000I-2270000J-100000D01*
G01*
X158469999Y-67078001D02*
G75*
G02*
X156210000Y-68958000I-2069999J190000D01*
G01*
X158265000Y-58708000D02*
G75*
G03*
X159485000Y-60128000I1320000J-100000D01*
G01*
X162074000Y-71078000D02*
G75*
G02*
X159810000Y-72962000I-2074000J190000D01*
G01*
X177560000Y-64783000D02*
X182260000Y-64783000D01*
X172685000Y-62558001D02*
X172685000Y-57958000D01*
X177265000Y-58658000D02*
X177265000Y-57958000D01*
X170185000Y-69054000D02*
X170185000Y-72962000D01*
X172710000Y-62583000D02*
X175260000Y-62583000D01*
X170185000Y-72962000D02*
X178810000Y-72962000D01*
X170185000Y-69008000D02*
X175235000Y-68962000D01*
X181085000Y-67054000D02*
X177475000Y-67054000D01*
X182260000Y-64758000D02*
X182284999Y-60158000D01*
X178485000Y-60133000D02*
X182260000Y-60133000D01*
X181085000Y-71008000D02*
X181085000Y-67063000D01*
X172710000Y-57933000D02*
X177260000Y-57933000D01*
X177555000Y-64758000D02*
G75*
G03*
X175185000Y-62588000I-2270000J-100000D01*
G01*
X177469999Y-67078001D02*
G75*
G02*
X175210000Y-68958000I-2069999J190000D01*
G01*
X181074000Y-71078000D02*
G75*
G02*
X178810000Y-72962000I-2074000J190000D01*
G01*
X177265000Y-58708000D02*
G75*
G03*
X178485000Y-60128000I1320000J-100000D01*
G01*
X189185000Y-72962000D02*
X197810000Y-72962000D01*
X197485000Y-60133000D02*
X201260000Y-60133000D01*
X200085000Y-71008000D02*
X200085000Y-67063000D01*
X196560000Y-64783000D02*
X201260000Y-64783000D01*
X189185000Y-69008000D02*
X194235000Y-68962000D01*
X191685000Y-62558001D02*
X191685000Y-57958000D01*
X200085000Y-67054000D02*
X196475000Y-67054000D01*
X196265000Y-58658000D02*
X196265000Y-57958000D01*
X189185000Y-69054000D02*
X189185000Y-72962000D01*
X191710000Y-62583000D02*
X194260000Y-62583000D01*
X191710000Y-57933000D02*
X196260000Y-57933000D01*
X201260000Y-64758000D02*
X201284999Y-60158000D01*
X196265000Y-58708000D02*
G75*
G03*
X197485000Y-60128000I1320000J-100000D01*
G01*
X200074000Y-71078000D02*
G75*
G02*
X197810000Y-72962000I-2074000J190000D01*
G01*
X196555000Y-64758000D02*
G75*
G03*
X194185000Y-62588000I-2270000J-100000D01*
G01*
X196469999Y-67078001D02*
G75*
G02*
X194210000Y-68958000I-2069999J190000D01*
G01*
X94185000Y-91962000D02*
X102810000Y-91962000D01*
X101265000Y-77658000D02*
X101265000Y-76958000D01*
X102485000Y-79133000D02*
X106260000Y-79133000D01*
X106260000Y-83758000D02*
X106284999Y-79158000D01*
X96710000Y-76933000D02*
X101260000Y-76933000D01*
X105085000Y-90008000D02*
X105085000Y-86063000D01*
X96710000Y-81583000D02*
X99260000Y-81583000D01*
X94185000Y-88008000D02*
X99235000Y-87962000D01*
X101560000Y-83783000D02*
X106260000Y-83783000D01*
X105085000Y-86054000D02*
X101475000Y-86054000D01*
X94185000Y-88054000D02*
X94185000Y-91962000D01*
X96685000Y-81558001D02*
X96685000Y-76958000D01*
X101469999Y-86078001D02*
G75*
G02*
X99210000Y-87958000I-2069999J190000D01*
G01*
X101265000Y-77708000D02*
G75*
G03*
X102485000Y-79128000I1320000J-100000D01*
G01*
X101555000Y-83758000D02*
G75*
G03*
X99185000Y-81588000I-2270000J-100000D01*
G01*
X105074000Y-90078000D02*
G75*
G02*
X102810000Y-91962000I-2074000J190000D01*
G01*
X115710000Y-81583000D02*
X118260000Y-81583000D01*
X115685000Y-81558001D02*
X115685000Y-76958000D01*
X121485000Y-79133000D02*
X125260000Y-79133000D01*
X120265000Y-77658000D02*
X120265000Y-76958000D01*
X120560000Y-83783000D02*
X125260000Y-83783000D01*
X113185000Y-91962000D02*
X121810000Y-91962000D01*
X115710000Y-76933000D02*
X120260000Y-76933000D01*
X124085000Y-90008000D02*
X124085000Y-86063000D01*
X113185000Y-88008000D02*
X118235000Y-87962000D01*
X125260000Y-83758000D02*
X125284999Y-79158000D01*
X124085000Y-86054000D02*
X120475000Y-86054000D01*
X113185000Y-88054000D02*
X113185000Y-91962000D01*
X120265000Y-77708000D02*
G75*
G03*
X121485000Y-79128000I1320000J-100000D01*
G01*
X120555000Y-83758000D02*
G75*
G03*
X118185000Y-81588000I-2270000J-100000D01*
G01*
X124074000Y-90078000D02*
G75*
G02*
X121810000Y-91962000I-2074000J190000D01*
G01*
X120469999Y-86078001D02*
G75*
G02*
X118210000Y-87958000I-2069999J190000D01*
G01*
X140485000Y-79133000D02*
X144260000Y-79133000D01*
X134685000Y-81558001D02*
X134685000Y-76958000D01*
X144260000Y-83758000D02*
X144284999Y-79158000D01*
X143085000Y-86054000D02*
X139475000Y-86054000D01*
X134710000Y-81583000D02*
X137260000Y-81583000D01*
X134710000Y-76933000D02*
X139260000Y-76933000D01*
X132185000Y-88008000D02*
X137235000Y-87962000D01*
X139265000Y-77658000D02*
X139265000Y-76958000D01*
X143085000Y-90008000D02*
X143085000Y-86063000D01*
X132185000Y-88054000D02*
X132185000Y-91962000D01*
X139560000Y-83783000D02*
X144260000Y-83783000D01*
X132185000Y-91962000D02*
X140810000Y-91962000D01*
X139555000Y-83758000D02*
G75*
G03*
X137185000Y-81588000I-2270000J-100000D01*
G01*
X139469999Y-86078001D02*
G75*
G02*
X137210000Y-87958000I-2069999J190000D01*
G01*
X143074000Y-90078000D02*
G75*
G02*
X140810000Y-91962000I-2074000J190000D01*
G01*
X139265000Y-77708000D02*
G75*
G03*
X140485000Y-79128000I1320000J-100000D01*
G01*
X162085000Y-90008000D02*
X162085000Y-86063000D01*
X158560000Y-83783000D02*
X163260000Y-83783000D01*
X153710000Y-76933000D02*
X158260000Y-76933000D01*
X153685000Y-81558001D02*
X153685000Y-76958000D01*
X158265000Y-77658000D02*
X158265000Y-76958000D01*
X153710000Y-81583000D02*
X156260000Y-81583000D01*
X151185000Y-88008000D02*
X156235000Y-87962000D01*
X151185000Y-88054000D02*
X151185000Y-91962000D01*
X162085000Y-86054000D02*
X158475000Y-86054000D01*
X159485000Y-79133000D02*
X163260000Y-79133000D01*
X163260000Y-83758000D02*
X163284999Y-79158000D01*
X151185000Y-91962000D02*
X159810000Y-91962000D01*
X162074000Y-90078000D02*
G75*
G02*
X159810000Y-91962000I-2074000J190000D01*
G01*
X158555000Y-83758000D02*
G75*
G03*
X156185000Y-81588000I-2270000J-100000D01*
G01*
X158265000Y-77708000D02*
G75*
G03*
X159485000Y-79128000I1320000J-100000D01*
G01*
X158469999Y-86078001D02*
G75*
G02*
X156210000Y-87958000I-2069999J190000D01*
G01*
X172710000Y-81583000D02*
X175260000Y-81583000D01*
X170185000Y-91962000D02*
X178810000Y-91962000D01*
X178485000Y-79133000D02*
X182260000Y-79133000D01*
X172685000Y-81558001D02*
X172685000Y-76958000D01*
X172710000Y-76933000D02*
X177260000Y-76933000D01*
X170185000Y-88008000D02*
X175235000Y-87962000D01*
X181085000Y-86054000D02*
X177475000Y-86054000D01*
X181085000Y-90008000D02*
X181085000Y-86063000D01*
X182260000Y-83758000D02*
X182284999Y-79158000D01*
X170185000Y-88054000D02*
X170185000Y-91962000D01*
X177560000Y-83783000D02*
X182260000Y-83783000D01*
X177265000Y-77658000D02*
X177265000Y-76958000D01*
X177265000Y-77708000D02*
G75*
G03*
X178485000Y-79128000I1320000J-100000D01*
G01*
X181074000Y-90078000D02*
G75*
G02*
X178810000Y-91962000I-2074000J190000D01*
G01*
X177555000Y-83758000D02*
G75*
G03*
X175185000Y-81588000I-2270000J-100000D01*
G01*
X177469999Y-86078001D02*
G75*
G02*
X175210000Y-87958000I-2069999J190000D01*
G01*
X191710000Y-76933000D02*
X196260000Y-76933000D01*
X197485000Y-79133000D02*
X201260000Y-79133000D01*
X189185000Y-88008000D02*
X194235000Y-87962000D01*
X200085000Y-90008000D02*
X200085000Y-86063000D01*
X191710000Y-81583000D02*
X194260000Y-81583000D01*
X200085000Y-86054000D02*
X196475000Y-86054000D01*
X201260000Y-83758000D02*
X201284999Y-79158000D01*
X191685000Y-81558001D02*
X191685000Y-76958000D01*
X189185000Y-91962000D02*
X197810000Y-91962000D01*
X196265000Y-77658000D02*
X196265000Y-76958000D01*
X196560000Y-83783000D02*
X201260000Y-83783000D01*
X189185000Y-88054000D02*
X189185000Y-91962000D01*
X196265000Y-77708000D02*
G75*
G03*
X197485000Y-79128000I1320000J-100000D01*
G01*
X200074000Y-90078000D02*
G75*
G02*
X197810000Y-91962000I-2074000J190000D01*
G01*
X196469999Y-86078001D02*
G75*
G02*
X194210000Y-87958000I-2069999J190000D01*
G01*
X196555000Y-83758000D02*
G75*
G03*
X194185000Y-81588000I-2270000J-100000D01*
G01*
X170185000Y-107008000D02*
X175235000Y-106962000D01*
X181085000Y-109008000D02*
X181085000Y-105063000D01*
X172685000Y-100558001D02*
X172685000Y-95958000D01*
X178485000Y-98133000D02*
X182260000Y-98133000D01*
X172710000Y-100583000D02*
X175260000Y-100583000D01*
X177265000Y-96658000D02*
X177265000Y-95958000D01*
X172710000Y-95933000D02*
X177260000Y-95933000D01*
X181085000Y-105054000D02*
X177475000Y-105054000D01*
X182260000Y-102758000D02*
X182284999Y-98158000D01*
X170185000Y-110962000D02*
X178810000Y-110962000D01*
X170185000Y-107054000D02*
X170185000Y-110962000D01*
X177560000Y-102783000D02*
X182260000Y-102783000D01*
X177555000Y-102758000D02*
G75*
G03*
X175185000Y-100588000I-2270000J-100000D01*
G01*
X177469999Y-105078001D02*
G75*
G02*
X175210000Y-106958000I-2069999J190000D01*
G01*
X177265000Y-96708000D02*
G75*
G03*
X178485000Y-98128000I1320000J-100000D01*
G01*
X181074000Y-109078000D02*
G75*
G02*
X178810000Y-110962000I-2074000J190000D01*
G01*
X191685000Y-100558001D02*
X191685000Y-95958000D01*
X200085000Y-105054000D02*
X196475000Y-105054000D01*
X197485000Y-98133000D02*
X201260000Y-98133000D01*
X189185000Y-107008000D02*
X194235000Y-106962000D01*
X189185000Y-110962000D02*
X197810000Y-110962000D01*
X201260000Y-102758000D02*
X201284999Y-98158000D01*
X200085000Y-109008000D02*
X200085000Y-105063000D01*
X196560000Y-102783000D02*
X201260000Y-102783000D01*
X191710000Y-100583000D02*
X194260000Y-100583000D01*
X196265000Y-96658000D02*
X196265000Y-95958000D01*
X191710000Y-95933000D02*
X196260000Y-95933000D01*
X189185000Y-107054000D02*
X189185000Y-110962000D01*
X196265000Y-96708000D02*
G75*
G03*
X197485000Y-98128000I1320000J-100000D01*
G01*
X196555000Y-102758000D02*
G75*
G03*
X194185000Y-100588000I-2270000J-100000D01*
G01*
X196469999Y-105078001D02*
G75*
G02*
X194210000Y-106958000I-2069999J190000D01*
G01*
X200074000Y-109078000D02*
G75*
G02*
X197810000Y-110962000I-2074000J190000D01*
G01*
X208185000Y-107054000D02*
X208185000Y-110962000D01*
X208185000Y-110962000D02*
X216810000Y-110962000D01*
X220260000Y-102758000D02*
X220284999Y-98158000D01*
X210685000Y-100558001D02*
X210685000Y-95958000D01*
X215560000Y-102783000D02*
X220260000Y-102783000D01*
X215265000Y-96658000D02*
X215265000Y-95958000D01*
X208185000Y-107008000D02*
X213235000Y-106962000D01*
X219085000Y-105054000D02*
X215475000Y-105054000D01*
X216485000Y-98133000D02*
X220260000Y-98133000D01*
X210710000Y-95933000D02*
X215260000Y-95933000D01*
X210710000Y-100583000D02*
X213260000Y-100583000D01*
X219085000Y-109008000D02*
X219085000Y-105063000D01*
X215265000Y-96708000D02*
G75*
G03*
X216485000Y-98128000I1320000J-100000D01*
G01*
X219074000Y-109078000D02*
G75*
G02*
X216810000Y-110962000I-2074000J190000D01*
G01*
X215555000Y-102758000D02*
G75*
G03*
X213185000Y-100588000I-2270000J-100000D01*
G01*
X215469999Y-105078001D02*
G75*
G02*
X213210000Y-106958000I-2069999J190000D01*
G01*
X214675000Y-41600000D02*
X214725000Y-41600000D01*
X209750000Y-37100000D02*
X209750000Y-38275000D01*
X216650000Y-39825000D02*
X216650000Y-40375000D01*
X211675000Y-41600000D02*
X213225000Y-41600000D01*
X209750000Y-39825000D02*
X209750000Y-40375000D01*
X216650000Y-37100000D02*
X216650000Y-38275000D01*
X209750000Y-37100000D02*
X216650000Y-37100000D01*
D12*
X211075000Y-43175000D02*
G75*
G03*
X211075000Y-43175000I-125000J0D01*
G01*
D11*
X210733000Y-76923000D02*
X215283000Y-76923000D01*
X215583000Y-83773000D02*
X220283000Y-83773000D01*
X219108000Y-86044000D02*
X215498000Y-86044000D01*
X210708000Y-81548001D02*
X210708000Y-76948000D01*
X210733000Y-81573000D02*
X213283000Y-81573000D01*
X208208000Y-91952000D02*
X216833000Y-91952000D01*
X208208000Y-88044000D02*
X208208000Y-91952000D01*
X208208000Y-87998000D02*
X213258000Y-87952000D01*
X215288000Y-77648000D02*
X215288000Y-76948000D01*
X220283000Y-83748000D02*
X220307999Y-79148000D01*
X216508000Y-79123000D02*
X220283000Y-79123000D01*
X219108000Y-89998000D02*
X219108000Y-86053000D01*
X215492999Y-86068001D02*
G75*
G02*
X213233000Y-87948000I-2069999J190000D01*
G01*
X215288000Y-77698000D02*
G75*
G03*
X216508000Y-79118000I1320000J-100000D01*
G01*
X215578000Y-83748000D02*
G75*
G03*
X213208000Y-81578000I-2270000J-100000D01*
G01*
X219097000Y-90068000D02*
G75*
G02*
X216833000Y-91952000I-2074000J190000D01*
G01*
X214905000Y-48870000D02*
X211095000Y-48870000D01*
X211095000Y-46330000D02*
X214905000Y-46330000D01*
X211095000Y-48870000D02*
X211095000Y-46330000D01*
X214905000Y-46330000D02*
X214905000Y-48870000D01*
D13*
X220461000Y-41968000D03*
X220461000Y-44508000D03*
X220461000Y-47048000D03*
X220461000Y-49588000D03*
X220461000Y-52128000D03*
X220461000Y-54668000D03*
X220461000Y-57208000D03*
X220461000Y-59748000D03*
X220461000Y-62288000D03*
X220461000Y-64828000D03*
X220461000Y-67368000D03*
X220461000Y-69908000D03*
X205221000Y-69908000D03*
X205221000Y-67368000D03*
X205221000Y-64828000D03*
X205221000Y-62288000D03*
X205221000Y-59748000D03*
X205221000Y-57208000D03*
X205221000Y-54668000D03*
X205221000Y-52128000D03*
X205221000Y-49588000D03*
X205221000Y-47048000D03*
X205221000Y-44508000D03*
X205221000Y-41968000D03*
M02*
