M48
; DRILL file {KiCad (5.99.0-6672-g81c853438)} date Saturday, November 14, 2020 at 12:53:08 AM
; FORMAT={-:-/ absolute / inch / decimal}
; #@! TF.CreationDate,2020-11-14T00:53:08+00:00
; #@! TF.GenerationSoftware,Kicad,Pcbnew,(5.99.0-6672-g81c853438)
; #@! TF.FileFunction,NonPlated,1,2,NPTH
FMAT,2
INCH
T1C0.0039
T2C0.0354
T3C0.0669
T4C0.0748
T5C0.0866
T6C0.1181
T7C0.1575
%
G90
G05
T1
X6.7386Y-1.9582
X7.0398Y-1.9582
X7.4866Y-2.7062
X7.7878Y-2.7062
X5.2425Y-1.9582
X5.5437Y-1.9582
X5.9906Y-2.7062
X6.2917Y-2.7062
X4.4945Y-2.7062
X4.7957Y-2.7062
X4.4945Y-3.4543
X4.7957Y-3.4543
X3.7465Y-3.4543
X4.0476Y-3.4543
X7.4866Y-4.2023
X7.7878Y-4.2023
X4.4945Y-1.9582
X4.7957Y-1.9582
X7.4866Y-3.4543
X7.7878Y-3.4543
X5.9906Y-3.4543
X6.2917Y-3.4543
X7.4866Y-1.9582
X7.7878Y-1.9582
X5.9906Y-1.9582
X6.2917Y-1.9582
X6.7386Y-2.7062
X7.0398Y-2.7062
X5.2425Y-2.7062
X5.5437Y-2.7062
X8.2346Y-4.2023
X8.5358Y-4.2023
X6.7386Y-4.2023
X7.0398Y-4.2023
X3.7465Y-1.9582
X4.0476Y-1.9582
X6.7386Y-3.4543
X7.0398Y-3.4543
X5.2425Y-3.4543
X5.5437Y-3.4543
X8.2356Y-3.4539
X8.5367Y-3.4539
X3.7465Y-2.7062
X4.0476Y-2.7062
T2
X8.3346Y-1.5787
X8.4528Y-1.5787
X8.3346Y-1.5787
X8.4528Y-1.5787
T3
X5.1931Y-1.8566
X5.5931Y-1.8566
X5.9411Y-2.6046
X6.3411Y-2.6046
X4.4451Y-2.6046
X4.8451Y-2.6046
X4.4451Y-3.3527
X4.8451Y-3.3527
X3.697Y-3.3527
X4.097Y-3.3527
X7.4372Y-4.1007
X7.8372Y-4.1007
X4.4451Y-1.8566
X4.8451Y-1.8566
X7.4372Y-3.3527
X7.8372Y-3.3527
X5.9411Y-3.3527
X6.3411Y-3.3527
X7.4372Y-1.8566
X7.8372Y-1.8566
X5.9411Y-1.8566
X6.3411Y-1.8566
X6.6892Y-2.6046
X7.0892Y-2.6046
X5.1931Y-2.6046
X5.5931Y-2.6046
X8.1852Y-4.1007
X8.5852Y-4.1007
X6.6892Y-4.1007
X7.0892Y-4.1007
X3.697Y-1.8566
X4.097Y-1.8566
X6.6892Y-3.3527
X7.0892Y-3.3527
X5.1931Y-3.3527
X5.5931Y-3.3527
X8.1861Y-3.3523
X8.5861Y-3.3523
X3.697Y-2.6046
X4.097Y-2.6046
X6.6892Y-1.8566
X7.0892Y-1.8566
X7.4372Y-2.6046
X7.8372Y-2.6046
T4
X7.4207Y-1.8566
X7.8537Y-1.8566
X5.9246Y-1.8566
X6.3577Y-1.8566
X6.6726Y-2.6046
X7.1057Y-2.6046
X5.1766Y-2.6046
X5.6096Y-2.6046
X8.1687Y-4.1007
X8.6018Y-4.1007
X6.6726Y-4.1007
X7.1057Y-4.1007
X3.6805Y-1.8566
X4.1136Y-1.8566
X6.6726Y-3.3527
X7.1057Y-3.3527
X5.1766Y-3.3527
X5.6096Y-3.3527
X8.1696Y-3.3523
X8.6027Y-3.3523
X3.6805Y-2.6046
X4.1136Y-2.6046
X6.6726Y-1.8566
X7.1057Y-1.8566
X7.4207Y-2.6046
X7.8537Y-2.6046
X5.1766Y-1.8566
X5.6096Y-1.8566
X5.9246Y-2.6046
X6.3577Y-2.6046
X4.4285Y-2.6046
X4.8616Y-2.6046
X4.4285Y-3.3527
X4.8616Y-3.3527
X3.6805Y-3.3527
X4.1136Y-3.3527
X7.4207Y-4.1007
X7.8537Y-4.1007
X4.4285Y-1.8566
X4.8616Y-1.8566
X7.4207Y-3.3527
X7.8537Y-3.3527
X5.9246Y-3.3527
X6.3577Y-3.3527
T5
X3.626Y-2.9724
X8.0126Y-3.7263
X4.2706Y-2.9783
X7.9961Y-1.5827
X7.2632Y-3.7267
X3.626Y-2.2323
X8.0126Y-2.9783
X5.7696Y-2.9823
X6.5157Y-1.5827
X4.2717Y-1.5827
T6
X5.9443Y-3.207
X5.9911Y-3.4527
X5.9911Y-3.4527
X6.0411Y-3.5527
X6.1411Y-3.1204
X6.2411Y-3.5527
X6.2911Y-3.4527
X6.338Y-3.207
X7.4404Y-1.7109
X7.4872Y-1.9566
X7.4872Y-1.9566
X7.5372Y-2.0566
X7.6372Y-1.6243
X7.7372Y-2.0566
X7.7872Y-1.9566
X7.8341Y-1.7109
X5.9443Y-1.7109
X5.9911Y-1.9566
X5.9911Y-1.9566
X6.0411Y-2.0566
X6.1411Y-1.6243
X6.2411Y-2.0566
X6.2911Y-1.9566
X6.338Y-1.7109
X6.6923Y-2.459
X6.7392Y-2.7046
X6.7392Y-2.7046
X6.7892Y-2.8046
X6.8892Y-2.3724
X6.9892Y-2.8046
X7.0392Y-2.7046
X7.086Y-2.459
X5.1963Y-2.459
X5.2431Y-2.7046
X5.2431Y-2.7046
X5.2931Y-2.8046
X5.3931Y-2.3724
X5.4931Y-2.8046
X5.5431Y-2.7046
X5.59Y-2.459
X8.1884Y-3.955
X8.2352Y-4.2007
X8.2352Y-4.2007
X8.2852Y-4.3007
X8.3852Y-3.8684
X8.4852Y-4.3007
X8.5352Y-4.2007
X8.5821Y-3.955
X6.6923Y-3.955
X6.7392Y-4.2007
X6.7392Y-4.2007
X6.7892Y-4.3007
X6.8892Y-3.8684
X6.9892Y-4.3007
X7.0392Y-4.2007
X7.086Y-3.955
X3.7002Y-1.7109
X3.747Y-1.9566
X3.747Y-1.9566
X3.797Y-2.0566
X3.897Y-1.6243
X3.997Y-2.0566
X4.047Y-1.9566
X4.0939Y-1.7109
X6.6923Y-3.207
X6.7392Y-3.4527
X6.7392Y-3.4527
X6.7892Y-3.5527
X6.8892Y-3.1204
X6.9892Y-3.5527
X7.0392Y-3.4527
X7.086Y-3.207
X5.1963Y-3.207
X5.2431Y-3.4527
X5.2431Y-3.4527
X5.2931Y-3.5527
X5.3931Y-3.1204
X5.4931Y-3.5527
X5.5431Y-3.4527
X5.59Y-3.207
X8.1893Y-3.2066
X8.2361Y-3.4523
X8.2361Y-3.4523
X8.2861Y-3.5523
X8.3861Y-3.12
X8.4861Y-3.5523
X8.5361Y-3.4523
X8.583Y-3.2066
X3.7002Y-2.459
X3.747Y-2.7046
X3.747Y-2.7046
X3.797Y-2.8046
X3.897Y-2.3724
X3.997Y-2.8046
X4.047Y-2.7046
X4.0939Y-2.459
X6.6923Y-1.7109
X6.7392Y-1.9566
X6.7392Y-1.9566
X6.7892Y-2.0566
X6.8892Y-1.6243
X6.9892Y-2.0566
X7.0392Y-1.9566
X7.086Y-1.7109
X7.4404Y-2.459
X7.4872Y-2.7046
X7.4872Y-2.7046
X7.5372Y-2.8046
X7.6372Y-2.3724
X7.7372Y-2.8046
X7.7872Y-2.7046
X7.8341Y-2.459
X5.1963Y-1.7109
X5.2431Y-1.9566
X5.2431Y-1.9566
X5.2931Y-2.0566
X5.3931Y-1.6243
X5.4931Y-2.0566
X5.5431Y-1.9566
X5.59Y-1.7109
X5.9443Y-2.459
X5.9911Y-2.7046
X5.9911Y-2.7046
X6.0411Y-2.8046
X6.1411Y-2.3724
X6.2411Y-2.8046
X6.2911Y-2.7046
X6.338Y-2.459
X4.4482Y-2.459
X4.4951Y-2.7046
X4.4951Y-2.7046
X4.5451Y-2.8046
X4.6451Y-2.3724
X4.7451Y-2.8046
X4.7951Y-2.7046
X4.8419Y-2.459
X4.4482Y-3.207
X4.4951Y-3.4527
X4.4951Y-3.4527
X4.5451Y-3.5527
X4.6451Y-3.1204
X4.7451Y-3.5527
X4.7951Y-3.4527
X4.8419Y-3.207
X3.7002Y-3.207
X3.747Y-3.4527
X3.747Y-3.4527
X3.797Y-3.5527
X3.897Y-3.1204
X3.997Y-3.5527
X4.047Y-3.4527
X4.0939Y-3.207
X7.4404Y-3.955
X7.4872Y-4.2007
X7.4872Y-4.2007
X7.5372Y-4.3007
X7.6372Y-3.8684
X7.7372Y-4.3007
X7.7872Y-4.2007
X7.8341Y-3.955
X4.4482Y-1.7109
X4.4951Y-1.9566
X4.4951Y-1.9566
X4.5451Y-2.0566
X4.6451Y-1.6243
X4.7451Y-2.0566
X4.7951Y-1.9566
X4.8419Y-1.7109
X7.4404Y-3.207
X7.4872Y-3.4527
X7.4872Y-3.4527
X7.5372Y-3.5527
X7.6372Y-3.1204
X7.7372Y-3.5527
X7.7872Y-3.4527
X7.8341Y-3.207
T7
X4.6451Y-1.8566
X7.6372Y-3.3527
X6.1411Y-3.3527
X7.6372Y-1.8566
X6.1411Y-1.8566
X6.8892Y-2.6046
X5.3931Y-2.6046
X8.3852Y-4.1007
X6.8892Y-4.1007
X3.897Y-1.8566
X6.8892Y-3.3527
X5.3931Y-3.3527
X8.3861Y-3.3523
X3.897Y-2.6046
X6.8892Y-1.8566
X7.6372Y-2.6046
X5.3931Y-1.8566
X6.1411Y-2.6046
X4.6451Y-2.6046
X4.6451Y-3.3527
X3.897Y-3.3527
X7.6372Y-4.1007
T0
M30
