G04 #@! TF.GenerationSoftware,KiCad,Pcbnew,(5.99.0-6672-g81c853438)*
G04 #@! TF.CreationDate,2020-11-14T00:53:03+00:00*
G04 #@! TF.ProjectId,helix,68656c69-782e-46b6-9963-61645f706362,rev?*
G04 #@! TF.SameCoordinates,Original*
G04 #@! TF.FileFunction,Copper,L2,Bot*
G04 #@! TF.FilePolarity,Positive*
%FSLAX46Y46*%
G04 Gerber Fmt 4.6, Leading zero omitted, Abs format (unit mm)*
G04 Created by KiCad (PCBNEW (5.99.0-6672-g81c853438)) date 2020-11-14 00:53:03*
%MOMM*%
%LPD*%
G01*
G04 APERTURE LIST*
G04 #@! TA.AperFunction,Profile*
%ADD10C,0.150000*%
G04 #@! TD*
G04 #@! TA.AperFunction,SMDPad,CuDef*
%ADD11R,2.900000X0.500000*%
G04 #@! TD*
G04 #@! TA.AperFunction,ComponentPad*
%ADD12R,1.600000X1.600000*%
G04 #@! TD*
G04 #@! TA.AperFunction,SMDPad,CuDef*
%ADD13R,1.600000X1.200000*%
G04 #@! TD*
G04 #@! TA.AperFunction,ComponentPad*
%ADD14C,1.600000*%
G04 #@! TD*
G04 #@! TA.AperFunction,ComponentPad*
%ADD15C,2.000000*%
G04 #@! TD*
G04 #@! TA.AperFunction,SMDPad,CuDef*
%ADD16R,2.500000X2.500000*%
G04 #@! TD*
G04 #@! TA.AperFunction,SMDPad,CuDef*
%ADD17R,0.700000X1.500000*%
G04 #@! TD*
G04 #@! TA.AperFunction,SMDPad,CuDef*
%ADD18R,2.000000X2.000000*%
G04 #@! TD*
G04 #@! TA.AperFunction,SMDPad,CuDef*
%ADD19R,2.400000X2.400000*%
G04 #@! TD*
G04 #@! TA.AperFunction,SMDPad,CuDef*
%ADD20R,1.900000X2.000000*%
G04 #@! TD*
G04 #@! TA.AperFunction,SMDPad,CuDef*
%ADD21R,1.000000X0.800000*%
G04 #@! TD*
G04 #@! TA.AperFunction,ComponentPad*
%ADD22C,1.524000*%
G04 #@! TD*
G04 #@! TA.AperFunction,ComponentPad*
%ADD23R,1.524000X1.524000*%
G04 #@! TD*
G04 #@! TA.AperFunction,ViaPad*
%ADD24C,0.600000*%
G04 #@! TD*
G04 #@! TA.AperFunction,Conductor*
%ADD25C,0.250000*%
G04 #@! TD*
G04 #@! TA.AperFunction,Conductor*
%ADD26C,0.500000*%
G04 #@! TD*
G04 APERTURE END LIST*
D10*
X222500000Y-112072000D02*
X222500000Y-39700000D01*
X89500000Y-92768000D02*
G75*
G03*
X91000000Y-94268000I1500000J0D01*
G01*
X91000000Y-94268000D02*
X164096000Y-94292000D01*
X164096000Y-94292000D02*
G75*
G02*
X165366000Y-95562000I0J-1270000D01*
G01*
X222500000Y-39700000D02*
G75*
G03*
X221039340Y-38158000I-1460660J79195D01*
G01*
X165366000Y-95562000D02*
X165366000Y-112326000D01*
X89500000Y-39658000D02*
X89500000Y-92768000D01*
X91000000Y-38158000D02*
G75*
G03*
X89500000Y-39658000I0J-1500000D01*
G01*
X166382000Y-113342000D02*
G75*
G02*
X165366000Y-112326000I0J1016000D01*
G01*
X222500000Y-112072000D02*
G75*
G02*
X221230000Y-113342000I-1270000J0D01*
G01*
X221039340Y-38158000D02*
X91000000Y-38158000D01*
X166382000Y-113342000D02*
X221230000Y-113342000D01*
D11*
X106100000Y-55600000D03*
D12*
X104700000Y-55600000D03*
D13*
X107200000Y-55600000D03*
D11*
X111100000Y-55600000D03*
D13*
X110000000Y-55600000D03*
D14*
X112500000Y-55600000D03*
D11*
X125000000Y-55700000D03*
D12*
X123600000Y-55700000D03*
D13*
X126100000Y-55700000D03*
D11*
X130000000Y-55700000D03*
D13*
X128900000Y-55700000D03*
D14*
X131400000Y-55700000D03*
D11*
X143300000Y-55900000D03*
D12*
X141900000Y-55900000D03*
D13*
X144400000Y-55900000D03*
D11*
X148300000Y-55900000D03*
D13*
X147200000Y-55900000D03*
D14*
X149700000Y-55900000D03*
D11*
X163000000Y-56000000D03*
D12*
X161600000Y-56000000D03*
D13*
X164100000Y-56000000D03*
D11*
X168000000Y-56000000D03*
D13*
X166900000Y-56000000D03*
D14*
X169400000Y-56000000D03*
D11*
X174300000Y-56000000D03*
D12*
X172900000Y-56000000D03*
D13*
X175400000Y-56000000D03*
D11*
X179300000Y-56000000D03*
D13*
X178200000Y-56000000D03*
D14*
X180700000Y-56000000D03*
D11*
X196500000Y-55800000D03*
D12*
X195100000Y-55800000D03*
D13*
X197600000Y-55800000D03*
D11*
X201500000Y-55800000D03*
D13*
X200400000Y-55800000D03*
D14*
X202900000Y-55800000D03*
D11*
X106100000Y-58300000D03*
D12*
X104700000Y-58300000D03*
D13*
X107200000Y-58300000D03*
D11*
X111100000Y-58300000D03*
D13*
X110000000Y-58300000D03*
D14*
X112500000Y-58300000D03*
D11*
X124900000Y-58300000D03*
D12*
X123500000Y-58300000D03*
D13*
X126000000Y-58300000D03*
D11*
X129900000Y-58300000D03*
D13*
X128800000Y-58300000D03*
D14*
X131300000Y-58300000D03*
D11*
X143300000Y-58500000D03*
D12*
X141900000Y-58500000D03*
D13*
X144400000Y-58500000D03*
D11*
X148300000Y-58500000D03*
D13*
X147200000Y-58500000D03*
D14*
X149700000Y-58500000D03*
D11*
X163000000Y-58600000D03*
D12*
X161600000Y-58600000D03*
D13*
X164100000Y-58600000D03*
D11*
X168000000Y-58600000D03*
D13*
X166900000Y-58600000D03*
D14*
X169400000Y-58600000D03*
D11*
X182000000Y-58700000D03*
D12*
X180600000Y-58700000D03*
D13*
X183100000Y-58700000D03*
D11*
X187000000Y-58700000D03*
D13*
X185900000Y-58700000D03*
D14*
X188400000Y-58700000D03*
D11*
X185700000Y-55800000D03*
D12*
X184300000Y-55800000D03*
D13*
X186800000Y-55800000D03*
D11*
X190700000Y-55800000D03*
D13*
X189600000Y-55800000D03*
D14*
X192100000Y-55800000D03*
D11*
X96400000Y-75400000D03*
D12*
X95000000Y-75400000D03*
D13*
X97500000Y-75400000D03*
D11*
X101400000Y-75400000D03*
D13*
X100300000Y-75400000D03*
D14*
X102800000Y-75400000D03*
D11*
X115400000Y-75300000D03*
D12*
X114000000Y-75300000D03*
D13*
X116500000Y-75300000D03*
D11*
X120400000Y-75300000D03*
D13*
X119300000Y-75300000D03*
D14*
X121800000Y-75300000D03*
D11*
X134600000Y-75500000D03*
D12*
X133200000Y-75500000D03*
D13*
X135700000Y-75500000D03*
D11*
X139600000Y-75500000D03*
D13*
X138500000Y-75500000D03*
D14*
X141000000Y-75500000D03*
D11*
X153400000Y-75500000D03*
D12*
X152000000Y-75500000D03*
D13*
X154500000Y-75500000D03*
D11*
X158400000Y-75500000D03*
D13*
X157300000Y-75500000D03*
D14*
X159800000Y-75500000D03*
D11*
X172495000Y-75400000D03*
D12*
X171095000Y-75400000D03*
D13*
X173595000Y-75400000D03*
D11*
X177495000Y-75400000D03*
D13*
X176395000Y-75400000D03*
D14*
X178895000Y-75400000D03*
D11*
X191545000Y-75400000D03*
D12*
X190145000Y-75400000D03*
D13*
X192645000Y-75400000D03*
D11*
X196545000Y-75400000D03*
D13*
X195445000Y-75400000D03*
D14*
X197945000Y-75400000D03*
D11*
X172200000Y-94700000D03*
D12*
X170800000Y-94700000D03*
D13*
X173300000Y-94700000D03*
D11*
X177200000Y-94700000D03*
D13*
X176100000Y-94700000D03*
D14*
X178600000Y-94700000D03*
D11*
X191700000Y-94300000D03*
D12*
X190300000Y-94300000D03*
D13*
X192800000Y-94300000D03*
D11*
X196700000Y-94300000D03*
D13*
X195600000Y-94300000D03*
D14*
X198100000Y-94300000D03*
D11*
X210600000Y-94200000D03*
D12*
X209200000Y-94200000D03*
D13*
X211700000Y-94200000D03*
D11*
X215600000Y-94200000D03*
D13*
X214500000Y-94200000D03*
D14*
X217000000Y-94200000D03*
D15*
X216200000Y-72600000D03*
X209700000Y-72600000D03*
D16*
X105885000Y-49698000D03*
D17*
X107485000Y-49658000D03*
D18*
X107085000Y-43458000D03*
D19*
X93285000Y-52238000D03*
D17*
X91785000Y-52258000D03*
D20*
X96185000Y-41258000D03*
D16*
X124885000Y-49698000D03*
D18*
X126085000Y-43458000D03*
D17*
X126485000Y-49658000D03*
D19*
X112285000Y-52238000D03*
D17*
X110785000Y-52258000D03*
D20*
X115185000Y-41258000D03*
D18*
X145085000Y-43458000D03*
D16*
X143885000Y-49698000D03*
D17*
X145485000Y-49658000D03*
D20*
X134185000Y-41258000D03*
D19*
X131285000Y-52238000D03*
D17*
X129785000Y-52258000D03*
D16*
X162885000Y-49698000D03*
D18*
X164085000Y-43458000D03*
D17*
X164485000Y-49658000D03*
X148785000Y-52258000D03*
D20*
X153185000Y-41258000D03*
D19*
X150285000Y-52238000D03*
D17*
X183485000Y-49658000D03*
D16*
X181885000Y-49698000D03*
D18*
X183085000Y-43458000D03*
D17*
X167785000Y-52258000D03*
D20*
X172185000Y-41258000D03*
D19*
X169285000Y-52238000D03*
D16*
X200885000Y-49698000D03*
D18*
X202085000Y-43458000D03*
D17*
X202485000Y-49658000D03*
D20*
X191185000Y-41258000D03*
D19*
X188285000Y-52238000D03*
D17*
X186785000Y-52258000D03*
D16*
X105885000Y-68698000D03*
D18*
X107085000Y-62458000D03*
D17*
X107485000Y-68658000D03*
D20*
X96185000Y-60258000D03*
D17*
X91785000Y-71258000D03*
D19*
X93285000Y-71238000D03*
D16*
X124885000Y-68698000D03*
D18*
X126085000Y-62458000D03*
D17*
X126485000Y-68658000D03*
D19*
X112285000Y-71238000D03*
D20*
X115185000Y-60258000D03*
D17*
X110785000Y-71258000D03*
D16*
X143885000Y-68698000D03*
D18*
X145085000Y-62458000D03*
D17*
X145485000Y-68658000D03*
X129785000Y-71258000D03*
D19*
X131285000Y-71238000D03*
D20*
X134185000Y-60258000D03*
D18*
X164085000Y-62458000D03*
D16*
X162885000Y-68698000D03*
D17*
X164485000Y-68658000D03*
X148785000Y-71258000D03*
D20*
X153185000Y-60258000D03*
D19*
X150285000Y-71238000D03*
D18*
X183085000Y-62458000D03*
D16*
X181885000Y-68698000D03*
D17*
X183485000Y-68658000D03*
X167785000Y-71258000D03*
D19*
X169285000Y-71238000D03*
D20*
X172185000Y-60258000D03*
D17*
X202485000Y-68658000D03*
D18*
X202085000Y-62458000D03*
D16*
X200885000Y-68698000D03*
D20*
X191185000Y-60258000D03*
D17*
X186785000Y-71258000D03*
D19*
X188285000Y-71238000D03*
D17*
X107485000Y-87658000D03*
D16*
X105885000Y-87698000D03*
D18*
X107085000Y-81458000D03*
D19*
X93285000Y-90238000D03*
D17*
X91785000Y-90258000D03*
D20*
X96185000Y-79258000D03*
D16*
X124885000Y-87698000D03*
D18*
X126085000Y-81458000D03*
D17*
X126485000Y-87658000D03*
D19*
X112285000Y-90238000D03*
D17*
X110785000Y-90258000D03*
D20*
X115185000Y-79258000D03*
D16*
X143885000Y-87698000D03*
D18*
X145085000Y-81458000D03*
D17*
X145485000Y-87658000D03*
X129785000Y-90258000D03*
D20*
X134185000Y-79258000D03*
D19*
X131285000Y-90238000D03*
D17*
X164485000Y-87658000D03*
D16*
X162885000Y-87698000D03*
D18*
X164085000Y-81458000D03*
D19*
X150285000Y-90238000D03*
D20*
X153185000Y-79258000D03*
D17*
X148785000Y-90258000D03*
D16*
X181885000Y-87698000D03*
D17*
X183485000Y-87658000D03*
D18*
X183085000Y-81458000D03*
D19*
X169285000Y-90238000D03*
D20*
X172185000Y-79258000D03*
D17*
X167785000Y-90258000D03*
X202485000Y-87658000D03*
D18*
X202085000Y-81458000D03*
D16*
X200885000Y-87698000D03*
D20*
X191185000Y-79258000D03*
D19*
X188285000Y-90238000D03*
D17*
X186785000Y-90258000D03*
D18*
X183085000Y-100458000D03*
D16*
X181885000Y-106698000D03*
D17*
X183485000Y-106658000D03*
D19*
X169285000Y-109238000D03*
D17*
X167785000Y-109258000D03*
D20*
X172185000Y-98258000D03*
D16*
X200885000Y-106698000D03*
D17*
X202485000Y-106658000D03*
D18*
X202085000Y-100458000D03*
D20*
X191185000Y-98258000D03*
D17*
X186785000Y-109258000D03*
D19*
X188285000Y-109238000D03*
D18*
X221085000Y-100458000D03*
D17*
X221485000Y-106658000D03*
D16*
X219885000Y-106698000D03*
D17*
X205785000Y-109258000D03*
D20*
X210185000Y-98258000D03*
D19*
X207285000Y-109238000D03*
D17*
X210950000Y-41850000D03*
X213950000Y-41850000D03*
X215450000Y-41850000D03*
D21*
X209550000Y-41150000D03*
X216850000Y-41150000D03*
X209550000Y-39050000D03*
X216850000Y-39050000D03*
D11*
X210500000Y-75400000D03*
D12*
X209100000Y-75400000D03*
D13*
X211600000Y-75400000D03*
D11*
X215500000Y-75400000D03*
D13*
X214400000Y-75400000D03*
D14*
X216900000Y-75400000D03*
D17*
X221508000Y-87648000D03*
D18*
X221108000Y-81448000D03*
D16*
X219908000Y-87688000D03*
D17*
X205808000Y-90248000D03*
D20*
X210208000Y-79248000D03*
D19*
X207308000Y-90228000D03*
D22*
X220461000Y-41968000D03*
X220461000Y-44508000D03*
X220461000Y-47048000D03*
X220461000Y-49588000D03*
X220461000Y-52128000D03*
X220461000Y-54668000D03*
X220461000Y-57208000D03*
X220461000Y-59748000D03*
X220461000Y-62288000D03*
X220461000Y-64828000D03*
X220461000Y-67368000D03*
X220461000Y-69908000D03*
X205221000Y-69908000D03*
X205221000Y-67368000D03*
X205221000Y-64828000D03*
X205221000Y-62288000D03*
X205221000Y-59748000D03*
X205221000Y-57208000D03*
X205221000Y-54668000D03*
X205221000Y-52128000D03*
X205221000Y-49588000D03*
X205221000Y-47048000D03*
X205221000Y-44508000D03*
X205221000Y-41968000D03*
D23*
X214000000Y-47600000D03*
X212000000Y-47600000D03*
D24*
X92045100Y-47945300D03*
X189251300Y-64497100D03*
X132604400Y-45868100D03*
X149199500Y-47924700D03*
X173259400Y-43119700D03*
X108274300Y-45972600D03*
X107025300Y-72333300D03*
X107025300Y-79946900D03*
X125259000Y-47870400D03*
X126281200Y-60956600D03*
X149488900Y-54082000D03*
X144201500Y-83335200D03*
X164066500Y-71441200D03*
X164642500Y-45606900D03*
X164059800Y-79957100D03*
X183061900Y-108448300D03*
X182773200Y-45606900D03*
X183044200Y-71400700D03*
X202485000Y-45183300D03*
X198630700Y-92261300D03*
X203360000Y-99016700D03*
X221436100Y-89710300D03*
D25*
X212490600Y-39315300D02*
X213950000Y-40774700D01*
X210925200Y-39315300D02*
X212490600Y-39315300D01*
X210415600Y-39824900D02*
X210925200Y-39315300D01*
X207364100Y-39824900D02*
X210415600Y-39824900D01*
X205221000Y-41968000D02*
X207364100Y-39824900D01*
X213950000Y-41850000D02*
X213950000Y-40774700D01*
X214000000Y-45975300D02*
X210950000Y-42925300D01*
X214000000Y-47600000D02*
X214000000Y-45975300D01*
X210950000Y-41850000D02*
X210950000Y-42925300D01*
X209700000Y-51527000D02*
X209700000Y-72600000D01*
X205221000Y-47048000D02*
X209700000Y-51527000D01*
D26*
X207695700Y-44508000D02*
X205221000Y-44508000D01*
X210787700Y-47600000D02*
X207695700Y-44508000D01*
X212000000Y-47600000D02*
X211393900Y-47600000D01*
X211393900Y-47600000D02*
X210787700Y-47600000D01*
X211393900Y-47600000D02*
X216921500Y-53127500D01*
X220461000Y-49588000D02*
X216921500Y-53127500D01*
X216200000Y-53849000D02*
X216200000Y-72600000D01*
X216921500Y-53127500D02*
X216200000Y-53849000D01*
D25*
X112500000Y-55600000D02*
X111100000Y-55600000D01*
X92045100Y-46789700D02*
X92045100Y-47945300D01*
X93225200Y-45609600D02*
X92045100Y-46789700D01*
X94414900Y-45609600D02*
X93225200Y-45609600D01*
X96185000Y-43839500D02*
X94414900Y-45609600D01*
X96185000Y-41258000D02*
X96185000Y-43839500D01*
X91785000Y-52258000D02*
X91785000Y-51720300D01*
X91785000Y-51720300D02*
X91785000Y-51182700D01*
X92045100Y-50922600D02*
X91785000Y-51182700D01*
X92045100Y-47945300D02*
X92045100Y-50922600D01*
X92767300Y-51720300D02*
X93285000Y-52238000D01*
X91785000Y-51720300D02*
X92767300Y-51720300D01*
X111100000Y-55600000D02*
X110550000Y-55600000D01*
X110550000Y-55600000D02*
X110000000Y-55600000D01*
X97772400Y-56725400D02*
X93285000Y-52238000D01*
X109424600Y-56725400D02*
X97772400Y-56725400D01*
X110550000Y-55600000D02*
X109424600Y-56725400D01*
X149361700Y-70182700D02*
X148785000Y-70182700D01*
X150285000Y-71106000D02*
X149361700Y-70182700D01*
X150285000Y-71238000D02*
X150285000Y-71106000D01*
X148785000Y-71258000D02*
X148785000Y-70182700D01*
X166900000Y-58600000D02*
X166900000Y-59525300D01*
X153185000Y-60258000D02*
X153185000Y-61583300D01*
X169400000Y-58600000D02*
X168000000Y-58600000D01*
X168000000Y-58600000D02*
X166900000Y-58600000D01*
X148785000Y-66036100D02*
X148785000Y-70182700D01*
X150374200Y-64446900D02*
X148785000Y-66036100D01*
X151641500Y-64446900D02*
X150374200Y-64446900D01*
X153385500Y-62702900D02*
X151641500Y-64446900D01*
X153385500Y-62088700D02*
X153385500Y-62702900D01*
X157485100Y-62088700D02*
X153385500Y-62088700D01*
X158941200Y-60632600D02*
X157485100Y-62088700D01*
X165792700Y-60632600D02*
X158941200Y-60632600D01*
X166900000Y-59525300D02*
X165792700Y-60632600D01*
X153385500Y-61783800D02*
X153185000Y-61583300D01*
X153385500Y-62088700D02*
X153385500Y-61783800D01*
X172185000Y-60258000D02*
X172185000Y-61583300D01*
X188400000Y-58700000D02*
X187000000Y-58700000D01*
X187000000Y-58700000D02*
X185900000Y-58700000D01*
X185900000Y-58700000D02*
X185900000Y-59625300D01*
X184892700Y-60632600D02*
X185900000Y-59625300D01*
X177953700Y-60632600D02*
X184892700Y-60632600D01*
X176399300Y-62187000D02*
X177953700Y-60632600D01*
X172788700Y-62187000D02*
X176399300Y-62187000D01*
X172185000Y-61583300D02*
X172788700Y-62187000D01*
X168361700Y-70182700D02*
X167785000Y-70182700D01*
X169285000Y-71106000D02*
X168361700Y-70182700D01*
X169285000Y-71238000D02*
X169285000Y-71106000D01*
X167785000Y-71258000D02*
X167785000Y-70182700D01*
X167785000Y-66035500D02*
X167785000Y-70182700D01*
X169373600Y-64446900D02*
X167785000Y-66035500D01*
X170577600Y-64446900D02*
X169373600Y-64446900D01*
X172788700Y-62235800D02*
X170577600Y-64446900D01*
X172788700Y-62187000D02*
X172788700Y-62235800D01*
X186785000Y-71258000D02*
X186785000Y-70720300D01*
X187361700Y-70182700D02*
X187199500Y-70182700D01*
X188285000Y-71106000D02*
X187361700Y-70182700D01*
X188285000Y-71238000D02*
X188285000Y-71106000D01*
X186785000Y-70597200D02*
X186785000Y-70720300D01*
X187199500Y-70182700D02*
X186785000Y-70597200D01*
X188328100Y-64497100D02*
X189251300Y-64497100D01*
X187199500Y-65625700D02*
X188328100Y-64497100D01*
X187199500Y-70182700D02*
X187199500Y-65625700D01*
X190700000Y-55800000D02*
X189600000Y-55800000D01*
X190700000Y-55800000D02*
X191137400Y-55800000D01*
X191137400Y-55800000D02*
X192100000Y-55800000D01*
X191185000Y-62848700D02*
X191185000Y-60258000D01*
X189536600Y-64497100D02*
X191185000Y-62848700D01*
X189251300Y-64497100D02*
X189536600Y-64497100D01*
X191137400Y-58885100D02*
X191137400Y-55800000D01*
X191185000Y-58932700D02*
X191137400Y-58885100D01*
X191185000Y-60258000D02*
X191185000Y-58932700D01*
X99174700Y-76268300D02*
X99174700Y-75400000D01*
X96185000Y-79258000D02*
X99174700Y-76268300D01*
X100300000Y-75400000D02*
X99174700Y-75400000D01*
X91785000Y-90258000D02*
X91785000Y-89720300D01*
X93601700Y-79258000D02*
X96185000Y-79258000D01*
X92122000Y-80737700D02*
X93601700Y-79258000D01*
X92122000Y-89182700D02*
X92122000Y-80737700D01*
X91785000Y-89519700D02*
X92122000Y-89182700D01*
X91785000Y-89720300D02*
X91785000Y-89519700D01*
X93284900Y-90238000D02*
X93285000Y-90238000D01*
X93284900Y-90143400D02*
X93284900Y-90238000D01*
X92324200Y-89182700D02*
X93284900Y-90143400D01*
X92122000Y-89182700D02*
X92324200Y-89182700D01*
X102800000Y-75400000D02*
X101400000Y-75400000D01*
X101400000Y-75400000D02*
X100300000Y-75400000D01*
X118174700Y-76268300D02*
X118174700Y-75300000D01*
X115185000Y-79258000D02*
X118174700Y-76268300D01*
X119300000Y-75300000D02*
X118174700Y-75300000D01*
X110785000Y-90258000D02*
X110785000Y-89720300D01*
X112594000Y-79258000D02*
X115185000Y-79258000D01*
X111122000Y-80730000D02*
X112594000Y-79258000D01*
X111122000Y-89182700D02*
X111122000Y-80730000D01*
X110785000Y-89519700D02*
X111122000Y-89182700D01*
X110785000Y-89720300D02*
X110785000Y-89519700D01*
X112284900Y-90238000D02*
X112285000Y-90238000D01*
X112284900Y-90143400D02*
X112284900Y-90238000D01*
X111324200Y-89182700D02*
X112284900Y-90143400D01*
X111122000Y-89182700D02*
X111324200Y-89182700D01*
X120400000Y-75300000D02*
X119300000Y-75300000D01*
X121800000Y-75300000D02*
X120400000Y-75300000D01*
X138500000Y-75500000D02*
X137374700Y-75500000D01*
X141000000Y-75500000D02*
X139600000Y-75500000D01*
X139600000Y-75500000D02*
X138500000Y-75500000D01*
X130361700Y-89182700D02*
X129785000Y-89182700D01*
X131285000Y-90106000D02*
X130361700Y-89182700D01*
X131285000Y-90238000D02*
X131285000Y-90106000D01*
X129785000Y-90258000D02*
X129785000Y-89182700D01*
X137374700Y-76068300D02*
X134185000Y-79258000D01*
X137374700Y-75500000D02*
X137374700Y-76068300D01*
X129785000Y-85038300D02*
X129785000Y-89182700D01*
X131376400Y-83446900D02*
X129785000Y-85038300D01*
X132628600Y-83446900D02*
X131376400Y-83446900D01*
X134185000Y-81890500D02*
X132628600Y-83446900D01*
X134185000Y-79258000D02*
X134185000Y-81890500D01*
X156174700Y-76268300D02*
X156174700Y-75500000D01*
X153185000Y-79258000D02*
X156174700Y-76268300D01*
X157300000Y-75500000D02*
X156174700Y-75500000D01*
X148785000Y-90258000D02*
X148785000Y-89720300D01*
X150588100Y-79258000D02*
X153185000Y-79258000D01*
X149122000Y-80724100D02*
X150588100Y-79258000D01*
X149122000Y-89182700D02*
X149122000Y-80724100D01*
X148785000Y-89519700D02*
X149122000Y-89182700D01*
X148785000Y-89720300D02*
X148785000Y-89519700D01*
X150284900Y-90238000D02*
X150285000Y-90238000D01*
X150284900Y-90143400D02*
X150284900Y-90238000D01*
X149324200Y-89182700D02*
X150284900Y-90143400D01*
X149122000Y-89182700D02*
X149324200Y-89182700D01*
X159800000Y-75500000D02*
X158400000Y-75500000D01*
X158400000Y-75500000D02*
X157300000Y-75500000D01*
X175269700Y-76173300D02*
X175269700Y-75400000D01*
X172185000Y-79258000D02*
X175269700Y-76173300D01*
X176395000Y-75400000D02*
X175269700Y-75400000D01*
X167785000Y-90258000D02*
X167785000Y-89720300D01*
X169583100Y-79258000D02*
X172185000Y-79258000D01*
X168122000Y-80719100D02*
X169583100Y-79258000D01*
X168122000Y-89182700D02*
X168122000Y-80719100D01*
X167785000Y-89519700D02*
X168122000Y-89182700D01*
X167785000Y-89720300D02*
X167785000Y-89519700D01*
X169284900Y-90238000D02*
X169285000Y-90238000D01*
X169284900Y-90143400D02*
X169284900Y-90238000D01*
X168324200Y-89182700D02*
X169284900Y-90143400D01*
X168122000Y-89182700D02*
X168324200Y-89182700D01*
X178895000Y-75400000D02*
X177495000Y-75400000D01*
X177495000Y-75400000D02*
X176395000Y-75400000D01*
X186785000Y-90258000D02*
X186785000Y-89720300D01*
X186785000Y-89570200D02*
X187172500Y-89182700D01*
X186785000Y-89720300D02*
X186785000Y-89570200D01*
X188284900Y-90238000D02*
X188285000Y-90238000D01*
X188284900Y-90143400D02*
X188284900Y-90238000D01*
X187324200Y-89182700D02*
X188284900Y-90143400D01*
X187172500Y-89182700D02*
X187324200Y-89182700D01*
X197945000Y-75400000D02*
X196545000Y-75400000D01*
X187172500Y-84648600D02*
X187172500Y-89182700D01*
X188374200Y-83446900D02*
X187172500Y-84648600D01*
X189628600Y-83446900D02*
X188374200Y-83446900D01*
X191185000Y-81890500D02*
X189628600Y-83446900D01*
X191185000Y-79258000D02*
X191185000Y-81890500D01*
X196545000Y-75400000D02*
X195445000Y-75400000D01*
X194319700Y-76123300D02*
X191185000Y-79258000D01*
X194319700Y-75400000D02*
X194319700Y-76123300D01*
X195445000Y-75400000D02*
X194319700Y-75400000D01*
X216900000Y-75400000D02*
X215500000Y-75400000D01*
X215500000Y-75400000D02*
X214400000Y-75400000D01*
X214400000Y-75400000D02*
X213274700Y-75400000D01*
X213274700Y-76181300D02*
X213274700Y-75400000D01*
X210208000Y-79248000D02*
X213274700Y-76181300D01*
X206384700Y-89172700D02*
X205808000Y-89172700D01*
X207308000Y-90096000D02*
X206384700Y-89172700D01*
X207308000Y-90228000D02*
X207308000Y-90096000D01*
X205808000Y-90248000D02*
X205808000Y-89172700D01*
X205808000Y-84981900D02*
X205808000Y-89172700D01*
X207353000Y-83436900D02*
X205808000Y-84981900D01*
X208651600Y-83436900D02*
X207353000Y-83436900D01*
X210208000Y-81880500D02*
X208651600Y-83436900D01*
X210208000Y-79248000D02*
X210208000Y-81880500D01*
X131400000Y-55700000D02*
X130000000Y-55700000D01*
X128900000Y-55700000D02*
X130000000Y-55700000D01*
X128900000Y-55700000D02*
X128900000Y-54774700D01*
X114570800Y-54523800D02*
X112285000Y-52238000D01*
X128649100Y-54523800D02*
X114570800Y-54523800D01*
X128900000Y-54774700D02*
X128649100Y-54523800D01*
X110785100Y-51182700D02*
X110785000Y-51182700D01*
X110785100Y-47031400D02*
X110785100Y-51182700D01*
X112369600Y-45446900D02*
X110785100Y-47031400D01*
X113628600Y-45446900D02*
X112369600Y-45446900D01*
X115185000Y-43890500D02*
X113628600Y-45446900D01*
X115185000Y-41258000D02*
X115185000Y-43890500D01*
X110785000Y-52258000D02*
X110785000Y-51566800D01*
X110785000Y-51566800D02*
X110785000Y-51182700D01*
X111613800Y-51566800D02*
X112285000Y-52238000D01*
X110785000Y-51566800D02*
X111613800Y-51566800D01*
X174974700Y-95468300D02*
X174974700Y-94700000D01*
X172185000Y-98258000D02*
X174974700Y-95468300D01*
X176100000Y-94700000D02*
X174974700Y-94700000D01*
X167785000Y-109258000D02*
X167785000Y-108720300D01*
X169574100Y-98258000D02*
X172185000Y-98258000D01*
X168122000Y-99710100D02*
X169574100Y-98258000D01*
X168122000Y-108182700D02*
X168122000Y-99710100D01*
X167785000Y-108519700D02*
X168122000Y-108182700D01*
X167785000Y-108720300D02*
X167785000Y-108519700D01*
X169284900Y-109238000D02*
X169285000Y-109238000D01*
X169284900Y-109143400D02*
X169284900Y-109238000D01*
X168324200Y-108182700D02*
X169284900Y-109143400D01*
X168122000Y-108182700D02*
X168324200Y-108182700D01*
X178600000Y-94700000D02*
X177200000Y-94700000D01*
X177200000Y-94700000D02*
X176100000Y-94700000D01*
X198100000Y-94300000D02*
X196700000Y-94300000D01*
X196700000Y-94300000D02*
X195600000Y-94300000D01*
X195600000Y-94300000D02*
X194474700Y-94300000D01*
X194474700Y-94968300D02*
X191185000Y-98258000D01*
X194474700Y-94300000D02*
X194474700Y-94968300D01*
X187361700Y-108182700D02*
X186785000Y-108182700D01*
X188285000Y-109106000D02*
X187361700Y-108182700D01*
X188285000Y-109238000D02*
X188285000Y-109106000D01*
X186785000Y-109258000D02*
X186785000Y-108182700D01*
X186785000Y-104035500D02*
X186785000Y-108182700D01*
X188373600Y-102446900D02*
X186785000Y-104035500D01*
X189628600Y-102446900D02*
X188373600Y-102446900D01*
X191185000Y-100890500D02*
X189628600Y-102446900D01*
X191185000Y-98258000D02*
X191185000Y-100890500D01*
X214500000Y-94200000D02*
X213374700Y-94200000D01*
X217000000Y-94200000D02*
X215600000Y-94200000D01*
X215600000Y-94200000D02*
X214500000Y-94200000D01*
X213374700Y-95068300D02*
X210185000Y-98258000D01*
X213374700Y-94200000D02*
X213374700Y-95068300D01*
X206361700Y-108182700D02*
X205785000Y-108182700D01*
X207285000Y-109106000D02*
X206361700Y-108182700D01*
X207285000Y-109238000D02*
X207285000Y-109106000D01*
X205785000Y-109258000D02*
X205785000Y-108182700D01*
X205785000Y-104035500D02*
X205785000Y-108182700D01*
X207373600Y-102446900D02*
X205785000Y-104035500D01*
X208628600Y-102446900D02*
X207373600Y-102446900D01*
X210185000Y-100890500D02*
X208628600Y-102446900D01*
X210185000Y-98258000D02*
X210185000Y-100890500D01*
X129785000Y-52258000D02*
X129785000Y-51182700D01*
X129785000Y-51182700D02*
X130189400Y-51182700D01*
X131284900Y-52238000D02*
X131285000Y-52238000D01*
X131284900Y-52143400D02*
X131284900Y-52238000D01*
X130324200Y-51182700D02*
X131284900Y-52143400D01*
X130189400Y-51182700D02*
X130324200Y-51182700D01*
X134185000Y-41258000D02*
X134185000Y-42583300D01*
X130931400Y-45868100D02*
X132604400Y-45868100D01*
X130189400Y-46610100D02*
X130931400Y-45868100D01*
X130189400Y-51182700D02*
X130189400Y-46610100D01*
X134185000Y-44287500D02*
X134185000Y-42583300D01*
X132604400Y-45868100D02*
X134185000Y-44287500D01*
X149700000Y-55900000D02*
X148300000Y-55900000D01*
X148300000Y-55900000D02*
X147200000Y-55900000D01*
X146999900Y-54774600D02*
X147200000Y-54974700D01*
X133821600Y-54774600D02*
X146999900Y-54774600D01*
X131285000Y-52238000D02*
X133821600Y-54774600D01*
X147200000Y-55900000D02*
X147200000Y-54974700D01*
X169400000Y-56000000D02*
X168000000Y-56000000D01*
X153185000Y-41258000D02*
X153185000Y-42583300D01*
X168000000Y-56000000D02*
X166900000Y-56000000D01*
X148785000Y-52258000D02*
X148785000Y-51182700D01*
X153185000Y-43875300D02*
X153185000Y-42583300D01*
X151252700Y-45807600D02*
X153185000Y-43875300D01*
X150001800Y-45807600D02*
X151252700Y-45807600D01*
X149199500Y-46609900D02*
X150001800Y-45807600D01*
X149199500Y-47924700D02*
X149199500Y-46609900D01*
X149199500Y-47924700D02*
X149199500Y-51182700D01*
X149199500Y-51182700D02*
X148785000Y-51182700D01*
X166900000Y-56000000D02*
X166900000Y-56925300D01*
X149285700Y-51182700D02*
X149199500Y-51182700D01*
X150285000Y-52182000D02*
X149285700Y-51182700D01*
X150285000Y-52238000D02*
X150285000Y-52182000D01*
X166695400Y-57129900D02*
X166900000Y-56925300D01*
X155176900Y-57129900D02*
X166695400Y-57129900D01*
X150285000Y-52238000D02*
X155176900Y-57129900D01*
X178200000Y-56000000D02*
X177074700Y-56000000D01*
X180700000Y-56000000D02*
X179300000Y-56000000D01*
X179300000Y-56000000D02*
X178200000Y-56000000D01*
X172185000Y-41258000D02*
X172185000Y-42583300D01*
X171158000Y-54111000D02*
X169285000Y-52238000D01*
X175416300Y-54111000D02*
X171158000Y-54111000D01*
X177074700Y-55769400D02*
X175416300Y-54111000D01*
X177074700Y-56000000D02*
X177074700Y-55769400D01*
X172817600Y-43215900D02*
X172185000Y-42583300D01*
X172913800Y-43119700D02*
X172817600Y-43215900D01*
X173259400Y-43119700D02*
X172913800Y-43119700D01*
X168160000Y-46613700D02*
X168160000Y-52238000D01*
X169326800Y-45446900D02*
X168160000Y-46613700D01*
X170586600Y-45446900D02*
X169326800Y-45446900D01*
X172817600Y-43215900D02*
X170586600Y-45446900D01*
X167805000Y-52238000D02*
X168160000Y-52238000D01*
X167785000Y-52258000D02*
X167805000Y-52238000D01*
X168160000Y-52238000D02*
X169285000Y-52238000D01*
X202900000Y-55800000D02*
X201500000Y-55800000D01*
X201500000Y-55800000D02*
X200400000Y-55800000D01*
X200400000Y-55800000D02*
X200400000Y-54874700D01*
X190271300Y-54224300D02*
X188285000Y-52238000D01*
X199749600Y-54224300D02*
X190271300Y-54224300D01*
X200400000Y-54874700D02*
X199749600Y-54224300D01*
X188284900Y-52238000D02*
X188285000Y-52238000D01*
X188284900Y-52143400D02*
X188284900Y-52238000D01*
X187324200Y-51182700D02*
X188284900Y-52143400D01*
X186785000Y-51182700D02*
X187324200Y-51182700D01*
X186785000Y-52258000D02*
X186785000Y-51182700D01*
X186785000Y-47036100D02*
X186785000Y-51182700D01*
X188374200Y-45446900D02*
X186785000Y-47036100D01*
X189628600Y-45446900D02*
X188374200Y-45446900D01*
X191185000Y-43890500D02*
X189628600Y-45446900D01*
X191185000Y-41258000D02*
X191185000Y-43890500D01*
X92361700Y-70182700D02*
X91785000Y-70182700D01*
X93285000Y-71106000D02*
X92361700Y-70182700D01*
X93285000Y-71238000D02*
X93285000Y-71106000D01*
X91785000Y-71258000D02*
X91785000Y-70182700D01*
X110000000Y-58300000D02*
X110000000Y-59225300D01*
X109046300Y-60179000D02*
X110000000Y-59225300D01*
X102780400Y-60179000D02*
X109046300Y-60179000D01*
X100849600Y-62109800D02*
X102780400Y-60179000D01*
X96185000Y-62109800D02*
X100849600Y-62109800D01*
X96185000Y-60258000D02*
X96185000Y-62109800D01*
X91785000Y-66053000D02*
X91785000Y-70182700D01*
X93391100Y-64446900D02*
X91785000Y-66053000D01*
X94628600Y-64446900D02*
X93391100Y-64446900D01*
X96185000Y-62890500D02*
X94628600Y-64446900D01*
X96185000Y-62109800D02*
X96185000Y-62890500D01*
X112500000Y-58300000D02*
X111100000Y-58300000D01*
X111100000Y-58300000D02*
X110000000Y-58300000D01*
X131300000Y-58300000D02*
X129900000Y-58300000D01*
X129900000Y-58300000D02*
X128800000Y-58300000D01*
X110785000Y-71258000D02*
X110785000Y-70321100D01*
X111701900Y-71238000D02*
X110785000Y-70321100D01*
X112285000Y-71238000D02*
X111701900Y-71238000D01*
X115185000Y-62898000D02*
X115185000Y-60258000D01*
X113682800Y-64400200D02*
X115185000Y-62898000D01*
X112404900Y-64400200D02*
X113682800Y-64400200D01*
X110785000Y-66020100D02*
X112404900Y-64400200D01*
X110785000Y-70321100D02*
X110785000Y-66020100D01*
X128599900Y-57174600D02*
X128800000Y-57374700D01*
X118268400Y-57174600D02*
X128599900Y-57174600D01*
X115185000Y-60258000D02*
X118268400Y-57174600D01*
X128800000Y-58300000D02*
X128800000Y-57374700D01*
X149700000Y-58500000D02*
X148300000Y-58500000D01*
X148300000Y-58500000D02*
X147200000Y-58500000D01*
X130361700Y-70182700D02*
X129785000Y-70182700D01*
X131285000Y-71106000D02*
X130361700Y-70182700D01*
X131285000Y-71238000D02*
X131285000Y-71106000D01*
X129785000Y-71258000D02*
X129785000Y-70182700D01*
X147200000Y-58500000D02*
X147200000Y-59425300D01*
X129785000Y-66036100D02*
X129785000Y-70182700D01*
X131374200Y-64446900D02*
X129785000Y-66036100D01*
X132652200Y-64446900D02*
X131374200Y-64446900D01*
X134185000Y-62914100D02*
X132652200Y-64446900D01*
X134185000Y-62109800D02*
X134185000Y-62914100D01*
X134185000Y-60258000D02*
X134185000Y-62109800D01*
X146655600Y-59969700D02*
X147200000Y-59425300D01*
X140616600Y-59969700D02*
X146655600Y-59969700D01*
X138476500Y-62109800D02*
X140616600Y-59969700D01*
X134185000Y-62109800D02*
X138476500Y-62109800D01*
X105885000Y-87698000D02*
X105885000Y-86910300D01*
X107485000Y-87658000D02*
X107485000Y-86582700D01*
X106212600Y-86582700D02*
X107085000Y-86582700D01*
X105885000Y-86910300D02*
X106212600Y-86582700D01*
X107085000Y-86582700D02*
X107485000Y-86582700D01*
X107085000Y-81458000D02*
X107085000Y-86582700D01*
X107085000Y-62458000D02*
X108410300Y-62458000D01*
X107085000Y-43458000D02*
X107085000Y-44783300D01*
X105885000Y-68698000D02*
X107066500Y-68698000D01*
X107485000Y-49658000D02*
X107485000Y-49120300D01*
X107460300Y-49145000D02*
X107460300Y-49698000D01*
X107485000Y-49120300D02*
X107460300Y-49145000D01*
X105885000Y-49698000D02*
X107460300Y-49698000D01*
X107085000Y-80006600D02*
X107025300Y-79946900D01*
X107085000Y-81458000D02*
X107085000Y-80006600D01*
X107485000Y-68658000D02*
X107485000Y-67582700D01*
X107445000Y-68698000D02*
X107485000Y-68658000D01*
X107066500Y-68698000D02*
X107445000Y-68698000D01*
X108274300Y-45972600D02*
X107994600Y-45972600D01*
X107994600Y-45692900D02*
X107994600Y-45972600D01*
X107085000Y-44783300D02*
X107994600Y-45692900D01*
X107994600Y-48610700D02*
X107485000Y-49120300D01*
X107994600Y-45972600D02*
X107994600Y-48610700D01*
X108410300Y-66657400D02*
X107485000Y-67582700D01*
X108410300Y-62458000D02*
X108410300Y-66657400D01*
X107485000Y-49658000D02*
X107485000Y-50733300D01*
X110981300Y-54229600D02*
X107485000Y-50733300D01*
X112781800Y-54229600D02*
X110981300Y-54229600D01*
X113650800Y-55098600D02*
X112781800Y-54229600D01*
X113650800Y-58757900D02*
X113650800Y-55098600D01*
X109950700Y-62458000D02*
X113650800Y-58757900D01*
X108410300Y-62458000D02*
X109950700Y-62458000D01*
X107066500Y-72292100D02*
X107025300Y-72333300D01*
X107066500Y-68698000D02*
X107066500Y-72292100D01*
X124885000Y-68698000D02*
X126460300Y-68698000D01*
X126485000Y-49658000D02*
X126485000Y-50195600D01*
X126460300Y-50170900D02*
X126460300Y-49698000D01*
X126485000Y-50195600D02*
X126460300Y-50170900D01*
X124885000Y-49698000D02*
X125388800Y-49698000D01*
X125388800Y-49698000D02*
X126460300Y-49698000D01*
X126485000Y-68658000D02*
X126485000Y-69195600D01*
X126485000Y-68658000D02*
X126485000Y-67582700D01*
X126485000Y-87658000D02*
X126485000Y-88195600D01*
X126460300Y-88170900D02*
X126460300Y-87698000D01*
X126485000Y-88195600D02*
X126460300Y-88170900D01*
X124885000Y-87698000D02*
X126460300Y-87698000D01*
X125388800Y-48000200D02*
X125259000Y-47870400D01*
X125388800Y-49698000D02*
X125388800Y-48000200D01*
X126085000Y-47044400D02*
X126085000Y-43458000D01*
X125259000Y-47870400D02*
X126085000Y-47044400D01*
X124885000Y-87698000D02*
X124885000Y-86122700D01*
X126460300Y-69170900D02*
X126460300Y-68698000D01*
X126485000Y-69195600D02*
X126460300Y-69170900D01*
X126085000Y-84922700D02*
X126085000Y-81458000D01*
X124885000Y-86122700D02*
X126085000Y-84922700D01*
X126085000Y-81458000D02*
X126085000Y-80132700D01*
X126485000Y-64183300D02*
X126085000Y-63783300D01*
X126485000Y-67582700D02*
X126485000Y-64183300D01*
X126485000Y-79732700D02*
X126485000Y-69195600D01*
X126085000Y-80132700D02*
X126485000Y-79732700D01*
X126085000Y-62458000D02*
X126085000Y-63783300D01*
X132140100Y-38728200D02*
X127410300Y-43458000D01*
X198721800Y-38728200D02*
X132140100Y-38728200D01*
X202031900Y-42038300D02*
X198721800Y-38728200D01*
X203147200Y-42038300D02*
X202031900Y-42038300D01*
X204096700Y-42987800D02*
X203147200Y-42038300D01*
X204096700Y-47500800D02*
X204096700Y-42987800D01*
X204913900Y-48318000D02*
X204096700Y-47500800D01*
X205521000Y-48318000D02*
X204913900Y-48318000D01*
X206323500Y-49120500D02*
X205521000Y-48318000D01*
X206323500Y-53565500D02*
X206323500Y-49120500D01*
X205221000Y-54668000D02*
X206323500Y-53565500D01*
X126085000Y-43458000D02*
X127410300Y-43458000D01*
X126105100Y-61132700D02*
X126281200Y-60956600D01*
X126085000Y-61132700D02*
X126105100Y-61132700D01*
X126085000Y-62458000D02*
X126085000Y-61132700D01*
X145085000Y-43458000D02*
X145085000Y-44783300D01*
X145108200Y-67582700D02*
X145485000Y-67582700D01*
X145035100Y-67509600D02*
X145108200Y-67582700D01*
X145035100Y-63833200D02*
X145035100Y-67509600D01*
X145085000Y-63783300D02*
X145035100Y-63833200D01*
X145485000Y-68658000D02*
X145485000Y-68320400D01*
X145485000Y-68320400D02*
X145485000Y-67582700D01*
X145460300Y-68345100D02*
X145460300Y-68698000D01*
X145485000Y-68320400D02*
X145460300Y-68345100D01*
X143885000Y-68698000D02*
X145460300Y-68698000D01*
X145485000Y-49673300D02*
X145485000Y-49658000D01*
X145460300Y-49698000D02*
X145485000Y-49673300D01*
X145485000Y-45183300D02*
X145085000Y-44783300D01*
X145485000Y-49658000D02*
X145485000Y-45183300D01*
X145085000Y-62458000D02*
X145085000Y-62876500D01*
X145085000Y-62876500D02*
X145085000Y-63783300D01*
X145485000Y-49658000D02*
X145485000Y-50733300D01*
X143885000Y-49698000D02*
X145460300Y-49698000D01*
X148833700Y-54082000D02*
X149488900Y-54082000D01*
X145485000Y-50733300D02*
X148833700Y-54082000D01*
X146956100Y-62876500D02*
X145085000Y-62876500D01*
X150830500Y-59002100D02*
X146956100Y-62876500D01*
X150830500Y-55423600D02*
X150830500Y-59002100D01*
X149488900Y-54082000D02*
X150830500Y-55423600D01*
X143885000Y-87698000D02*
X143885000Y-86910300D01*
X145485000Y-87658000D02*
X145485000Y-86582700D01*
X144753400Y-82783300D02*
X144201500Y-83335200D01*
X145085000Y-82783300D02*
X144753400Y-82783300D01*
X145085000Y-81458000D02*
X145085000Y-82783300D01*
X144201500Y-86582700D02*
X145485000Y-86582700D01*
X144201500Y-86593800D02*
X144201500Y-86582700D01*
X143885000Y-86910300D02*
X144201500Y-86593800D01*
X144201500Y-86582700D02*
X144201500Y-83335200D01*
X164485000Y-68673300D02*
X164485000Y-68658000D01*
X164460300Y-68698000D02*
X164485000Y-68673300D01*
X162885000Y-68698000D02*
X163672700Y-68698000D01*
X163672700Y-64195600D02*
X164085000Y-63783300D01*
X163672700Y-68698000D02*
X163672700Y-64195600D01*
X164085000Y-62458000D02*
X164085000Y-63783300D01*
X163672700Y-68698000D02*
X164066500Y-68698000D01*
X164066500Y-68698000D02*
X164460300Y-68698000D01*
X162885000Y-87698000D02*
X162885000Y-86910300D01*
X164485000Y-87658000D02*
X164485000Y-86582700D01*
X163212600Y-86582700D02*
X164085000Y-86582700D01*
X162885000Y-86910300D02*
X163212600Y-86582700D01*
X164085000Y-86582700D02*
X164485000Y-86582700D01*
X164085000Y-81458000D02*
X164085000Y-86582700D01*
X164085000Y-45049400D02*
X164085000Y-43458000D01*
X164642500Y-45606900D02*
X164085000Y-45049400D01*
X164066500Y-68698000D02*
X164066500Y-71441200D01*
X164642500Y-48582700D02*
X164642500Y-45606900D01*
X164642500Y-48582700D02*
X164485000Y-48582700D01*
X164485000Y-49658000D02*
X164485000Y-49120300D01*
X164485000Y-49120300D02*
X164485000Y-48582700D01*
X164460300Y-49145000D02*
X164460300Y-49698000D01*
X164485000Y-49120300D02*
X164460300Y-49145000D01*
X162885000Y-49698000D02*
X164460300Y-49698000D01*
X165023700Y-48582700D02*
X164642500Y-48582700D01*
X166675100Y-50234100D02*
X165023700Y-48582700D01*
X166675100Y-52768800D02*
X166675100Y-50234100D01*
X168467700Y-54561400D02*
X166675100Y-52768800D01*
X169579400Y-54561400D02*
X168467700Y-54561400D01*
X170570900Y-55552900D02*
X169579400Y-54561400D01*
X170570900Y-59026600D02*
X170570900Y-55552900D01*
X167139500Y-62458000D02*
X170570900Y-59026600D01*
X164085000Y-62458000D02*
X167139500Y-62458000D01*
X165693900Y-73068600D02*
X164066500Y-71441200D01*
X192276300Y-73068600D02*
X165693900Y-73068600D01*
X193275200Y-72069700D02*
X192276300Y-73068600D01*
X193275200Y-68751400D02*
X193275200Y-72069700D01*
X191659600Y-67135800D02*
X193275200Y-68751400D01*
X191659600Y-65194800D02*
X191659600Y-67135800D01*
X197106400Y-59748000D02*
X191659600Y-65194800D01*
X205221000Y-59748000D02*
X197106400Y-59748000D01*
X164085000Y-81458000D02*
X164085000Y-80132700D01*
X164085000Y-79982300D02*
X164059800Y-79957100D01*
X164085000Y-80132700D02*
X164085000Y-79982300D01*
X183085000Y-81876500D02*
X183085000Y-82783300D01*
X183085000Y-81876500D02*
X183085000Y-81458000D01*
X183485000Y-108025200D02*
X183485000Y-107195600D01*
X183061900Y-108448300D02*
X183485000Y-108025200D01*
X183485000Y-83183300D02*
X183485000Y-87658000D01*
X183085000Y-82783300D02*
X183485000Y-83183300D01*
X183460300Y-87682700D02*
X183460300Y-87698000D01*
X183485000Y-87658000D02*
X183460300Y-87682700D01*
X181885000Y-106698000D02*
X181885000Y-105122700D01*
X183485000Y-106658000D02*
X183485000Y-106926800D01*
X183485000Y-106926800D02*
X183485000Y-107195600D01*
X183460300Y-106902100D02*
X183460300Y-106698000D01*
X183485000Y-106926800D02*
X183460300Y-106902100D01*
X181885000Y-106698000D02*
X183460300Y-106698000D01*
X183445000Y-68698000D02*
X183485000Y-68658000D01*
X183085000Y-68698000D02*
X183445000Y-68698000D01*
X182485000Y-68698000D02*
X183085000Y-68698000D01*
X182485000Y-64383300D02*
X183085000Y-63783300D01*
X182485000Y-68698000D02*
X182485000Y-64383300D01*
X183085000Y-62458000D02*
X183085000Y-63783300D01*
X181885000Y-87698000D02*
X183460300Y-87698000D01*
X183085000Y-43458000D02*
X183085000Y-44120600D01*
X182773200Y-44432400D02*
X182773200Y-45606900D01*
X183085000Y-44120600D02*
X182773200Y-44432400D01*
X183485000Y-49658000D02*
X183485000Y-50195600D01*
X183485000Y-50195600D02*
X183485000Y-50733300D01*
X183460300Y-50170900D02*
X183460300Y-49698000D01*
X183485000Y-50195600D02*
X183460300Y-50170900D01*
X181885000Y-49698000D02*
X183460300Y-49698000D01*
X182773200Y-47234500D02*
X181885000Y-48122700D01*
X182773200Y-45606900D02*
X182773200Y-47234500D01*
X181885000Y-49698000D02*
X181885000Y-48122700D01*
X186237800Y-62458000D02*
X183085000Y-62458000D01*
X189565200Y-59130600D02*
X186237800Y-62458000D01*
X189565200Y-57678000D02*
X189565200Y-59130600D01*
X188456000Y-56568800D02*
X189565200Y-57678000D01*
X188456000Y-54674700D02*
X188456000Y-56568800D01*
X187426400Y-54674700D02*
X188456000Y-54674700D01*
X183485000Y-50733300D02*
X187426400Y-54674700D01*
X206336500Y-61172500D02*
X205221000Y-62288000D01*
X206336500Y-59297500D02*
X206336500Y-61172500D01*
X205676300Y-58637300D02*
X206336500Y-59297500D01*
X195874800Y-58637300D02*
X205676300Y-58637300D01*
X193336400Y-56098900D02*
X195874800Y-58637300D01*
X193336400Y-55386700D02*
X193336400Y-56098900D01*
X192624400Y-54674700D02*
X193336400Y-55386700D01*
X188456000Y-54674700D02*
X192624400Y-54674700D01*
X183085000Y-103922700D02*
X181885000Y-105122700D01*
X183085000Y-100458000D02*
X183085000Y-103922700D01*
X181885000Y-97932700D02*
X181885000Y-87698000D01*
X183085000Y-99132700D02*
X181885000Y-97932700D01*
X183085000Y-100458000D02*
X183085000Y-99132700D01*
X181885000Y-68698000D02*
X182185000Y-68698000D01*
X182185000Y-68698000D02*
X182485000Y-68698000D01*
X182185000Y-70541500D02*
X183044200Y-71400700D01*
X182185000Y-68698000D02*
X182185000Y-70541500D01*
X200885000Y-106698000D02*
X202460300Y-106698000D01*
X202485000Y-83183300D02*
X202485000Y-86582700D01*
X202085000Y-82783300D02*
X202485000Y-83183300D01*
X202085000Y-81458000D02*
X202085000Y-82783300D01*
X202460300Y-106658000D02*
X202460300Y-106698000D01*
X202485000Y-106658000D02*
X202460300Y-106658000D01*
X200885000Y-68698000D02*
X201894200Y-68698000D01*
X201894200Y-68698000D02*
X202460300Y-68698000D01*
X201894200Y-79941900D02*
X202085000Y-80132700D01*
X201894200Y-68698000D02*
X201894200Y-79941900D01*
X202085000Y-81458000D02*
X202085000Y-80132700D01*
X202085000Y-43458000D02*
X202085000Y-44783300D01*
X202085000Y-62458000D02*
X203410300Y-62458000D01*
X202460300Y-68682700D02*
X202485000Y-68658000D01*
X202460300Y-68698000D02*
X202460300Y-68682700D01*
X202485000Y-67564000D02*
X205221000Y-64828000D01*
X202485000Y-68658000D02*
X202485000Y-67564000D01*
X202485000Y-87658000D02*
X202485000Y-87120300D01*
X202485000Y-87120300D02*
X202485000Y-86582700D01*
X202460300Y-87145000D02*
X202460300Y-87698000D01*
X202485000Y-87120300D02*
X202460300Y-87145000D01*
X202460300Y-102158600D02*
X202460300Y-106698000D01*
X202085000Y-101783300D02*
X202460300Y-102158600D01*
X202085000Y-100458000D02*
X202085000Y-101783300D01*
X202485000Y-49658000D02*
X202485000Y-50195600D01*
X202460300Y-50170900D02*
X202460300Y-49698000D01*
X202485000Y-50195600D02*
X202460300Y-50170900D01*
X200885000Y-49698000D02*
X202460300Y-49698000D01*
X202485000Y-53534000D02*
X202485000Y-50195600D01*
X204889000Y-55938000D02*
X202485000Y-53534000D01*
X205558400Y-55938000D02*
X204889000Y-55938000D01*
X206861700Y-57241300D02*
X205558400Y-55938000D01*
X206861700Y-62185900D02*
X206861700Y-57241300D01*
X205000000Y-64047600D02*
X206861700Y-62185900D01*
X205221000Y-64268700D02*
X205000000Y-64047600D01*
X205221000Y-64828000D02*
X205221000Y-64268700D01*
X205000000Y-64047600D02*
X203410300Y-62458000D01*
X202085000Y-44783300D02*
X202485000Y-45183300D01*
X202485000Y-45183300D02*
X202485000Y-49658000D01*
X200885000Y-87698000D02*
X201247300Y-87698000D01*
X201247300Y-87698000D02*
X202460300Y-87698000D01*
X201247300Y-89644700D02*
X198630700Y-92261300D01*
X201247300Y-87698000D02*
X201247300Y-89644700D01*
X203244000Y-99132700D02*
X203360000Y-99016700D01*
X202085000Y-99132700D02*
X203244000Y-99132700D01*
X202085000Y-100458000D02*
X202085000Y-99132700D01*
X219908000Y-87688000D02*
X221483300Y-87688000D01*
X221483300Y-89663100D02*
X221436100Y-89710300D01*
X221483300Y-87688000D02*
X221483300Y-89663100D01*
X219885000Y-106698000D02*
X221460300Y-106698000D01*
X221472700Y-106658000D02*
X221485000Y-106658000D01*
X221460300Y-106670400D02*
X221472700Y-106658000D01*
X221460300Y-106698000D02*
X221460300Y-106670400D01*
X221472700Y-102171000D02*
X221085000Y-101783300D01*
X221472700Y-106658000D02*
X221472700Y-102171000D01*
X221085000Y-100458000D02*
X221085000Y-100876500D01*
X221085000Y-100876500D02*
X221085000Y-101783300D01*
X221436100Y-100525400D02*
X221436100Y-89710300D01*
X221085000Y-100876500D02*
X221436100Y-100525400D01*
X221483300Y-87672700D02*
X221508000Y-87648000D01*
X221483300Y-87688000D02*
X221483300Y-87672700D01*
X221508000Y-83173300D02*
X221508000Y-87648000D01*
X221108000Y-82773300D02*
X221508000Y-83173300D01*
X221108000Y-81448000D02*
X221108000Y-82773300D01*
X174300000Y-56000000D02*
X175400000Y-56000000D01*
X172900000Y-56000000D02*
X174300000Y-56000000D01*
X164100000Y-56000000D02*
X163000000Y-56000000D01*
X161600000Y-56000000D02*
X163000000Y-56000000D01*
X144400000Y-55900000D02*
X143300000Y-55900000D01*
X107200000Y-55600000D02*
X106100000Y-55600000D01*
X104700000Y-55600000D02*
X106100000Y-55600000D01*
X126100000Y-55700000D02*
X125000000Y-55700000D01*
X125000000Y-55700000D02*
X123600000Y-55700000D01*
X195100000Y-55800000D02*
X196500000Y-55800000D01*
X196500000Y-55800000D02*
X197600000Y-55800000D01*
X143300000Y-55900000D02*
X141900000Y-55900000D01*
X130733800Y-56625300D02*
X126100000Y-56625300D01*
X130970600Y-56862100D02*
X130733800Y-56625300D01*
X139812600Y-56862100D02*
X130970600Y-56862100D01*
X140774700Y-55900000D02*
X139812600Y-56862100D01*
X141900000Y-55900000D02*
X140774700Y-55900000D01*
X126100000Y-55700000D02*
X126100000Y-56625300D01*
X186800000Y-55800000D02*
X185700000Y-55800000D01*
X182000000Y-58700000D02*
X180600000Y-58700000D01*
X164100000Y-58600000D02*
X163000000Y-58600000D01*
X144400000Y-58500000D02*
X143300000Y-58500000D01*
X161600000Y-58600000D02*
X163000000Y-58600000D01*
X182000000Y-58700000D02*
X183100000Y-58700000D01*
X143300000Y-58500000D02*
X141900000Y-58500000D01*
X126216200Y-59441500D02*
X126000000Y-59225300D01*
X132420000Y-59441500D02*
X126216200Y-59441500D01*
X133470500Y-58391000D02*
X132420000Y-59441500D01*
X140665700Y-58391000D02*
X133470500Y-58391000D01*
X140774700Y-58500000D02*
X140665700Y-58391000D01*
X141900000Y-58500000D02*
X140774700Y-58500000D01*
X126000000Y-58300000D02*
X126000000Y-59225300D01*
X184300000Y-55800000D02*
X185700000Y-55800000D01*
X183949400Y-56925300D02*
X183100000Y-57774700D01*
X184300000Y-56925300D02*
X183949400Y-56925300D01*
X183100000Y-58700000D02*
X183100000Y-57774700D01*
X184300000Y-55800000D02*
X184300000Y-56925300D01*
X104700000Y-58300000D02*
X106100000Y-58300000D01*
X106100000Y-58300000D02*
X107200000Y-58300000D01*
X126000000Y-58300000D02*
X124900000Y-58300000D01*
X124900000Y-58300000D02*
X123500000Y-58300000D01*
X210500000Y-75400000D02*
X211600000Y-75400000D01*
X209100000Y-75400000D02*
X210500000Y-75400000D01*
X192645000Y-75400000D02*
X191545000Y-75400000D01*
X95000000Y-75400000D02*
X96125300Y-75400000D01*
X96125300Y-75400000D02*
X96400000Y-75400000D01*
X96400000Y-75400000D02*
X97500000Y-75400000D01*
X115125300Y-75300000D02*
X115400000Y-75300000D01*
X115400000Y-75300000D02*
X116500000Y-75300000D01*
X133200000Y-75500000D02*
X134325300Y-75500000D01*
X134325300Y-75500000D02*
X134600000Y-75500000D01*
X134600000Y-75500000D02*
X135700000Y-75500000D01*
X153125300Y-75500000D02*
X153400000Y-75500000D01*
X153400000Y-75500000D02*
X154500000Y-75500000D01*
X172220300Y-75400000D02*
X172495000Y-75400000D01*
X172495000Y-75400000D02*
X173595000Y-75400000D01*
X114562700Y-75300000D02*
X115125300Y-75300000D01*
X114562700Y-75300000D02*
X114000000Y-75300000D01*
X97763500Y-74211200D02*
X97500000Y-74474700D01*
X111785900Y-74211200D02*
X97763500Y-74211200D01*
X112874700Y-75300000D02*
X111785900Y-74211200D01*
X114000000Y-75300000D02*
X112874700Y-75300000D01*
X97500000Y-75400000D02*
X97500000Y-74474700D01*
X171657700Y-75400000D02*
X172220300Y-75400000D01*
X191545000Y-75400000D02*
X190145000Y-75400000D01*
X173796600Y-74273100D02*
X173595000Y-74474700D01*
X187892800Y-74273100D02*
X173796600Y-74273100D01*
X189019700Y-75400000D02*
X187892800Y-74273100D01*
X190145000Y-75400000D02*
X189019700Y-75400000D01*
X173595000Y-75400000D02*
X173595000Y-74474700D01*
X152067500Y-75500000D02*
X153125300Y-75500000D01*
X152067500Y-75500000D02*
X152000000Y-75500000D01*
X135987000Y-74287700D02*
X135700000Y-74574700D01*
X149662400Y-74287700D02*
X135987000Y-74287700D01*
X150874700Y-75500000D02*
X149662400Y-74287700D01*
X152000000Y-75500000D02*
X150874700Y-75500000D01*
X135700000Y-75500000D02*
X135700000Y-74574700D01*
X171657700Y-75400000D02*
X171095000Y-75400000D01*
X154717500Y-74357200D02*
X154500000Y-74574700D01*
X168926900Y-74357200D02*
X154717500Y-74357200D01*
X169969700Y-75400000D02*
X168926900Y-74357200D01*
X171095000Y-75400000D02*
X169969700Y-75400000D01*
X154500000Y-75500000D02*
X154500000Y-74574700D01*
X211700000Y-94200000D02*
X210600000Y-94200000D01*
X170800000Y-94700000D02*
X171925300Y-94700000D01*
X171925300Y-94700000D02*
X172200000Y-94700000D01*
X172200000Y-94700000D02*
X173300000Y-94700000D01*
X190300000Y-94300000D02*
X191425300Y-94300000D01*
X191425300Y-94300000D02*
X191700000Y-94300000D01*
X191700000Y-94300000D02*
X192800000Y-94300000D01*
X212312100Y-92662600D02*
X211700000Y-93274700D01*
X212312100Y-87755300D02*
X212312100Y-92662600D01*
X210682600Y-86125800D02*
X212312100Y-87755300D01*
X210682600Y-84184700D02*
X210682600Y-86125800D01*
X219053700Y-75813600D02*
X210682600Y-84184700D01*
X219053700Y-66235300D02*
X219053700Y-75813600D01*
X220461000Y-64828000D02*
X219053700Y-66235300D01*
X211700000Y-94200000D02*
X211700000Y-93274700D01*
X210600000Y-94200000D02*
X209200000Y-94200000D01*
X193015500Y-93159200D02*
X192800000Y-93374700D01*
X207033900Y-93159200D02*
X193015500Y-93159200D01*
X208074700Y-94200000D02*
X207033900Y-93159200D01*
X209200000Y-94200000D02*
X208074700Y-94200000D01*
X192800000Y-94300000D02*
X192800000Y-93374700D01*
M02*
