%TF.GenerationSoftware,KiCad,Pcbnew,(5.1.5-0-10_14)*%
%TF.CreationDate,2020-01-11T12:58:57+00:00*%
%TF.ProjectId,helix,68656c69-782e-46b6-9963-61645f706362,rev?*%
%TF.SameCoordinates,Original*%
%TF.FileFunction,Legend,Top*%
%TF.FilePolarity,Positive*%
%FSLAX46Y46*%
G04 Gerber Fmt 4.6, Leading zero omitted, Abs format (unit mm)*
G04 Created by KiCad (PCBNEW (5.1.5-0-10_14)) date 2020-01-11 12:58:57*
%MOMM*%
%LPD*%
G04 APERTURE LIST*
%ADD10C,0.150000*%
%ADD11C,0.100000*%
G04 APERTURE END LIST*
D10*
X272174000Y-88982000D02*
G75*
G02X271158000Y-87966000I0J1016000D01*
G01*
X289930000Y-90482000D02*
G75*
G03X288430000Y-88982000I-1500000J0D01*
G01*
X272174000Y-88982000D02*
X288430000Y-88982000D01*
X271158000Y-33586000D02*
X271158000Y-87966000D01*
D11*
X274055000Y-91117000D02*
X288025000Y-91117000D01*
X274055000Y-105087000D02*
X274055000Y-91117000D01*
X288025000Y-91117000D02*
X288025000Y-105087000D01*
X288025000Y-105087000D02*
X274055000Y-105087000D01*
X255005000Y-91117000D02*
X268975000Y-91117000D01*
X255005000Y-105087000D02*
X255005000Y-91117000D01*
X268975000Y-91117000D02*
X268975000Y-105087000D01*
X268975000Y-105087000D02*
X255005000Y-105087000D01*
X235955000Y-91117000D02*
X249925000Y-91117000D01*
X235955000Y-105087000D02*
X235955000Y-91117000D01*
X249925000Y-91117000D02*
X249925000Y-105087000D01*
X249925000Y-105087000D02*
X235955000Y-105087000D01*
X159882000Y-72067000D02*
X173852000Y-72067000D01*
X159882000Y-86037000D02*
X159882000Y-72067000D01*
X173852000Y-72067000D02*
X173852000Y-86037000D01*
X173852000Y-86037000D02*
X159882000Y-86037000D01*
X178932000Y-72067000D02*
X192902000Y-72067000D01*
X178932000Y-86037000D02*
X178932000Y-72067000D01*
X192902000Y-72067000D02*
X192902000Y-86037000D01*
X192902000Y-86037000D02*
X178932000Y-86037000D01*
X197982000Y-72067000D02*
X211952000Y-72067000D01*
X197982000Y-86037000D02*
X197982000Y-72067000D01*
X211952000Y-72067000D02*
X211952000Y-86037000D01*
X211952000Y-86037000D02*
X197982000Y-86037000D01*
X216905000Y-72067000D02*
X230875000Y-72067000D01*
X216905000Y-86037000D02*
X216905000Y-72067000D01*
X230875000Y-72067000D02*
X230875000Y-86037000D01*
X230875000Y-86037000D02*
X216905000Y-86037000D01*
X235955000Y-72067000D02*
X249925000Y-72067000D01*
X235955000Y-86037000D02*
X235955000Y-72067000D01*
X249925000Y-72067000D02*
X249925000Y-86037000D01*
X249925000Y-86037000D02*
X235955000Y-86037000D01*
X255005000Y-72067000D02*
X268975000Y-72067000D01*
X255005000Y-86037000D02*
X255005000Y-72067000D01*
X268975000Y-72067000D02*
X268975000Y-86037000D01*
X268975000Y-86037000D02*
X255005000Y-86037000D01*
X255005000Y-53144000D02*
X268975000Y-53144000D01*
X255005000Y-67114000D02*
X255005000Y-53144000D01*
X268975000Y-53144000D02*
X268975000Y-67114000D01*
X268975000Y-67114000D02*
X255005000Y-67114000D01*
X235955000Y-53144000D02*
X249925000Y-53144000D01*
X235955000Y-67114000D02*
X235955000Y-53144000D01*
X249925000Y-53144000D02*
X249925000Y-67114000D01*
X249925000Y-67114000D02*
X235955000Y-67114000D01*
X216905000Y-53144000D02*
X230875000Y-53144000D01*
X216905000Y-67114000D02*
X216905000Y-53144000D01*
X230875000Y-53144000D02*
X230875000Y-67114000D01*
X230875000Y-67114000D02*
X216905000Y-67114000D01*
X197982000Y-53144000D02*
X211952000Y-53144000D01*
X197982000Y-67114000D02*
X197982000Y-53144000D01*
X211952000Y-53144000D02*
X211952000Y-67114000D01*
X211952000Y-67114000D02*
X197982000Y-67114000D01*
X178932000Y-53144000D02*
X192902000Y-53144000D01*
X178932000Y-67114000D02*
X178932000Y-53144000D01*
X192902000Y-53144000D02*
X192902000Y-67114000D01*
X192902000Y-67114000D02*
X178932000Y-67114000D01*
X159882000Y-53144000D02*
X173852000Y-53144000D01*
X159882000Y-67114000D02*
X159882000Y-53144000D01*
X173852000Y-53144000D02*
X173852000Y-67114000D01*
X173852000Y-67114000D02*
X159882000Y-67114000D01*
X160009000Y-34094000D02*
X173979000Y-34094000D01*
X160009000Y-48064000D02*
X160009000Y-34094000D01*
X173979000Y-34094000D02*
X173979000Y-48064000D01*
X173979000Y-48064000D02*
X160009000Y-48064000D01*
X197982000Y-34094000D02*
X211952000Y-34094000D01*
X197982000Y-48064000D02*
X197982000Y-34094000D01*
X211952000Y-34094000D02*
X211952000Y-48064000D01*
X211952000Y-48064000D02*
X197982000Y-48064000D01*
X178932000Y-34094000D02*
X192902000Y-34094000D01*
X178932000Y-48064000D02*
X178932000Y-34094000D01*
X192902000Y-34094000D02*
X192902000Y-48064000D01*
X192902000Y-48064000D02*
X178932000Y-48064000D01*
X216905000Y-34094000D02*
X230875000Y-34094000D01*
X216905000Y-48064000D02*
X216905000Y-34094000D01*
X230875000Y-34094000D02*
X230875000Y-48064000D01*
X230875000Y-48064000D02*
X216905000Y-48064000D01*
X255005000Y-34094000D02*
X268975000Y-34094000D01*
X255005000Y-48064000D02*
X255005000Y-34094000D01*
X268975000Y-34094000D02*
X268975000Y-48064000D01*
X268975000Y-48064000D02*
X255005000Y-48064000D01*
X249925000Y-34094000D02*
X249925000Y-48064000D01*
X235955000Y-34094000D02*
X249925000Y-34094000D01*
X235955000Y-48064000D02*
X235955000Y-34094000D01*
X249925000Y-48064000D02*
X235955000Y-48064000D01*
D10*
X159430000Y-32062000D02*
G75*
G03X157930000Y-33562000I0J-1500000D01*
G01*
X271158000Y-33586000D02*
G75*
G03X269658000Y-32086000I-1500000J0D01*
G01*
X269658000Y-32086000D02*
X159430000Y-32062000D01*
X289930000Y-105976000D02*
G75*
G02X288660000Y-107246000I-1270000J0D01*
G01*
X289930000Y-105976000D02*
X289930000Y-90482000D01*
X157930000Y-33562000D02*
X157930000Y-86672000D01*
X159430000Y-88172000D02*
X232526000Y-88196000D01*
X157930000Y-86672000D02*
G75*
G03X159430000Y-88172000I1500000J0D01*
G01*
X232526000Y-88196000D02*
G75*
G02X233796000Y-89466000I0J-1270000D01*
G01*
X233796000Y-89466000D02*
X233796000Y-106230000D01*
X234812000Y-107246000D02*
G75*
G02X233796000Y-106230000I0J1016000D01*
G01*
X234812000Y-107246000D02*
X288660000Y-107246000D01*
M02*
