%TF.GenerationSoftware,KiCad,Pcbnew,(5.1.5-0-10_14)*%
%TF.CreationDate,2020-01-11T12:58:57+00:00*%
%TF.ProjectId,helix,68656c69-782e-46b6-9963-61645f706362,rev?*%
%TF.SameCoordinates,Original*%
%TF.FileFunction,Soldermask,Bot*%
%TF.FilePolarity,Negative*%
%FSLAX46Y46*%
G04 Gerber Fmt 4.6, Leading zero omitted, Abs format (unit mm)*
G04 Created by KiCad (PCBNEW (5.1.5-0-10_14)) date 2020-01-11 12:58:57*
%MOMM*%
%LPD*%
G04 APERTURE LIST*
%ADD10C,0.150000*%
%ADD11C,0.100000*%
G04 APERTURE END LIST*
D10*
X272174000Y-88982000D02*
G75*
G02X271158000Y-87966000I0J1016000D01*
G01*
X289930000Y-90482000D02*
G75*
G03X288430000Y-88982000I-1500000J0D01*
G01*
X272174000Y-88982000D02*
X288430000Y-88982000D01*
X271158000Y-33586000D02*
X271158000Y-87966000D01*
D11*
X274055000Y-91117000D02*
X288025000Y-91117000D01*
X274055000Y-105087000D02*
X274055000Y-91117000D01*
X288025000Y-91117000D02*
X288025000Y-105087000D01*
X288025000Y-105087000D02*
X274055000Y-105087000D01*
X255005000Y-91117000D02*
X268975000Y-91117000D01*
X255005000Y-105087000D02*
X255005000Y-91117000D01*
X268975000Y-91117000D02*
X268975000Y-105087000D01*
X268975000Y-105087000D02*
X255005000Y-105087000D01*
X235955000Y-91117000D02*
X249925000Y-91117000D01*
X235955000Y-105087000D02*
X235955000Y-91117000D01*
X249925000Y-91117000D02*
X249925000Y-105087000D01*
X249925000Y-105087000D02*
X235955000Y-105087000D01*
X159882000Y-72067000D02*
X173852000Y-72067000D01*
X159882000Y-86037000D02*
X159882000Y-72067000D01*
X173852000Y-72067000D02*
X173852000Y-86037000D01*
X173852000Y-86037000D02*
X159882000Y-86037000D01*
X178932000Y-72067000D02*
X192902000Y-72067000D01*
X178932000Y-86037000D02*
X178932000Y-72067000D01*
X192902000Y-72067000D02*
X192902000Y-86037000D01*
X192902000Y-86037000D02*
X178932000Y-86037000D01*
X197982000Y-72067000D02*
X211952000Y-72067000D01*
X197982000Y-86037000D02*
X197982000Y-72067000D01*
X211952000Y-72067000D02*
X211952000Y-86037000D01*
X211952000Y-86037000D02*
X197982000Y-86037000D01*
X216905000Y-72067000D02*
X230875000Y-72067000D01*
X216905000Y-86037000D02*
X216905000Y-72067000D01*
X230875000Y-72067000D02*
X230875000Y-86037000D01*
X230875000Y-86037000D02*
X216905000Y-86037000D01*
X235955000Y-72067000D02*
X249925000Y-72067000D01*
X235955000Y-86037000D02*
X235955000Y-72067000D01*
X249925000Y-72067000D02*
X249925000Y-86037000D01*
X249925000Y-86037000D02*
X235955000Y-86037000D01*
X255005000Y-72067000D02*
X268975000Y-72067000D01*
X255005000Y-86037000D02*
X255005000Y-72067000D01*
X268975000Y-72067000D02*
X268975000Y-86037000D01*
X268975000Y-86037000D02*
X255005000Y-86037000D01*
X255005000Y-53144000D02*
X268975000Y-53144000D01*
X255005000Y-67114000D02*
X255005000Y-53144000D01*
X268975000Y-53144000D02*
X268975000Y-67114000D01*
X268975000Y-67114000D02*
X255005000Y-67114000D01*
X235955000Y-53144000D02*
X249925000Y-53144000D01*
X235955000Y-67114000D02*
X235955000Y-53144000D01*
X249925000Y-53144000D02*
X249925000Y-67114000D01*
X249925000Y-67114000D02*
X235955000Y-67114000D01*
X216905000Y-53144000D02*
X230875000Y-53144000D01*
X216905000Y-67114000D02*
X216905000Y-53144000D01*
X230875000Y-53144000D02*
X230875000Y-67114000D01*
X230875000Y-67114000D02*
X216905000Y-67114000D01*
X197982000Y-53144000D02*
X211952000Y-53144000D01*
X197982000Y-67114000D02*
X197982000Y-53144000D01*
X211952000Y-53144000D02*
X211952000Y-67114000D01*
X211952000Y-67114000D02*
X197982000Y-67114000D01*
X178932000Y-53144000D02*
X192902000Y-53144000D01*
X178932000Y-67114000D02*
X178932000Y-53144000D01*
X192902000Y-53144000D02*
X192902000Y-67114000D01*
X192902000Y-67114000D02*
X178932000Y-67114000D01*
X159882000Y-53144000D02*
X173852000Y-53144000D01*
X159882000Y-67114000D02*
X159882000Y-53144000D01*
X173852000Y-53144000D02*
X173852000Y-67114000D01*
X173852000Y-67114000D02*
X159882000Y-67114000D01*
X160009000Y-34094000D02*
X173979000Y-34094000D01*
X160009000Y-48064000D02*
X160009000Y-34094000D01*
X173979000Y-34094000D02*
X173979000Y-48064000D01*
X173979000Y-48064000D02*
X160009000Y-48064000D01*
X197982000Y-34094000D02*
X211952000Y-34094000D01*
X197982000Y-48064000D02*
X197982000Y-34094000D01*
X211952000Y-34094000D02*
X211952000Y-48064000D01*
X211952000Y-48064000D02*
X197982000Y-48064000D01*
X178932000Y-34094000D02*
X192902000Y-34094000D01*
X178932000Y-48064000D02*
X178932000Y-34094000D01*
X192902000Y-34094000D02*
X192902000Y-48064000D01*
X192902000Y-48064000D02*
X178932000Y-48064000D01*
X216905000Y-34094000D02*
X230875000Y-34094000D01*
X216905000Y-48064000D02*
X216905000Y-34094000D01*
X230875000Y-34094000D02*
X230875000Y-48064000D01*
X230875000Y-48064000D02*
X216905000Y-48064000D01*
X255005000Y-34094000D02*
X268975000Y-34094000D01*
X255005000Y-48064000D02*
X255005000Y-34094000D01*
X268975000Y-34094000D02*
X268975000Y-48064000D01*
X268975000Y-48064000D02*
X255005000Y-48064000D01*
X249925000Y-34094000D02*
X249925000Y-48064000D01*
X235955000Y-34094000D02*
X249925000Y-34094000D01*
X235955000Y-48064000D02*
X235955000Y-34094000D01*
X249925000Y-48064000D02*
X235955000Y-48064000D01*
D10*
X159430000Y-32062000D02*
G75*
G03X157930000Y-33562000I0J-1500000D01*
G01*
X271158000Y-33586000D02*
G75*
G03X269658000Y-32086000I-1500000J0D01*
G01*
X269658000Y-32086000D02*
X159430000Y-32062000D01*
X289930000Y-105976000D02*
G75*
G02X288660000Y-107246000I-1270000J0D01*
G01*
X289930000Y-105976000D02*
X289930000Y-90482000D01*
X157930000Y-33562000D02*
X157930000Y-86672000D01*
X159430000Y-88172000D02*
X232526000Y-88196000D01*
X157930000Y-86672000D02*
G75*
G03X159430000Y-88172000I1500000J0D01*
G01*
X232526000Y-88196000D02*
G75*
G02X233796000Y-89466000I0J-1270000D01*
G01*
X233796000Y-89466000D02*
X233796000Y-106230000D01*
X234812000Y-107246000D02*
G75*
G02X233796000Y-106230000I0J1016000D01*
G01*
X234812000Y-107246000D02*
X288660000Y-107246000D01*
D11*
G36*
X252852948Y-87167722D02*
G01*
X253116831Y-87277026D01*
X253116833Y-87277027D01*
X253354321Y-87435711D01*
X253556289Y-87637679D01*
X253714973Y-87875167D01*
X253714974Y-87875169D01*
X253824278Y-88139052D01*
X253880000Y-88419186D01*
X253880000Y-88704814D01*
X253824278Y-88984948D01*
X253714974Y-89248831D01*
X253714973Y-89248833D01*
X253556289Y-89486321D01*
X253354321Y-89688289D01*
X253116833Y-89846973D01*
X253116832Y-89846974D01*
X253116831Y-89846974D01*
X252852948Y-89956278D01*
X252572814Y-90012000D01*
X252287186Y-90012000D01*
X252007052Y-89956278D01*
X251743169Y-89846974D01*
X251743168Y-89846974D01*
X251743167Y-89846973D01*
X251505679Y-89688289D01*
X251303711Y-89486321D01*
X251145027Y-89248833D01*
X251145026Y-89248831D01*
X251035722Y-88984948D01*
X250980000Y-88704814D01*
X250980000Y-88419186D01*
X251035722Y-88139052D01*
X251145026Y-87875169D01*
X251145027Y-87875167D01*
X251303711Y-87637679D01*
X251505679Y-87435711D01*
X251743167Y-87277027D01*
X251743169Y-87277026D01*
X252007052Y-87167722D01*
X252287186Y-87112000D01*
X252572814Y-87112000D01*
X252852948Y-87167722D01*
G37*
G36*
X214914948Y-68259722D02*
G01*
X215178831Y-68369026D01*
X215178833Y-68369027D01*
X215416321Y-68527711D01*
X215618289Y-68729679D01*
X215776973Y-68967167D01*
X215776974Y-68967169D01*
X215886278Y-69231052D01*
X215942000Y-69511186D01*
X215942000Y-69796814D01*
X215886278Y-70076948D01*
X215776974Y-70340831D01*
X215776973Y-70340833D01*
X215618289Y-70578321D01*
X215416321Y-70780289D01*
X215178833Y-70938973D01*
X215178832Y-70938974D01*
X215178831Y-70938974D01*
X214914948Y-71048278D01*
X214634814Y-71104000D01*
X214349186Y-71104000D01*
X214069052Y-71048278D01*
X213805169Y-70938974D01*
X213805168Y-70938974D01*
X213805167Y-70938973D01*
X213567679Y-70780289D01*
X213365711Y-70578321D01*
X213207027Y-70340833D01*
X213207026Y-70340831D01*
X213097722Y-70076948D01*
X213042000Y-69796814D01*
X213042000Y-69511186D01*
X213097722Y-69231052D01*
X213207026Y-68967169D01*
X213207027Y-68967167D01*
X213365711Y-68729679D01*
X213567679Y-68527711D01*
X213805167Y-68369027D01*
X213805169Y-68369026D01*
X214069052Y-68259722D01*
X214349186Y-68204000D01*
X214634814Y-68204000D01*
X214914948Y-68259722D01*
G37*
G36*
X176852948Y-68259722D02*
G01*
X177116831Y-68369026D01*
X177116833Y-68369027D01*
X177354321Y-68527711D01*
X177556289Y-68729679D01*
X177714973Y-68967167D01*
X177714974Y-68967169D01*
X177824278Y-69231052D01*
X177880000Y-69511186D01*
X177880000Y-69796814D01*
X177824278Y-70076948D01*
X177714974Y-70340831D01*
X177714973Y-70340833D01*
X177556289Y-70578321D01*
X177354321Y-70780289D01*
X177116833Y-70938973D01*
X177116832Y-70938974D01*
X177116831Y-70938974D01*
X176852948Y-71048278D01*
X176572814Y-71104000D01*
X176287186Y-71104000D01*
X176007052Y-71048278D01*
X175743169Y-70938974D01*
X175743168Y-70938974D01*
X175743167Y-70938973D01*
X175505679Y-70780289D01*
X175303711Y-70578321D01*
X175145027Y-70340833D01*
X175145026Y-70340831D01*
X175035722Y-70076948D01*
X174980000Y-69796814D01*
X174980000Y-69511186D01*
X175035722Y-69231052D01*
X175145026Y-68967169D01*
X175145027Y-68967167D01*
X175303711Y-68729679D01*
X175505679Y-68527711D01*
X175743167Y-68369027D01*
X175743169Y-68369026D01*
X176007052Y-68259722D01*
X176287186Y-68204000D01*
X176572814Y-68204000D01*
X176852948Y-68259722D01*
G37*
G36*
X252852948Y-49167722D02*
G01*
X253116831Y-49277026D01*
X253116833Y-49277027D01*
X253354321Y-49435711D01*
X253556289Y-49637679D01*
X253714973Y-49875167D01*
X253714974Y-49875169D01*
X253824278Y-50139052D01*
X253880000Y-50419186D01*
X253880000Y-50704814D01*
X253824278Y-50984948D01*
X253714974Y-51248831D01*
X253714973Y-51248833D01*
X253556289Y-51486321D01*
X253354321Y-51688289D01*
X253116833Y-51846973D01*
X253116832Y-51846974D01*
X253116831Y-51846974D01*
X252852948Y-51956278D01*
X252572814Y-52012000D01*
X252287186Y-52012000D01*
X252007052Y-51956278D01*
X251743169Y-51846974D01*
X251743168Y-51846974D01*
X251743167Y-51846973D01*
X251505679Y-51688289D01*
X251303711Y-51486321D01*
X251145027Y-51248833D01*
X251145026Y-51248831D01*
X251035722Y-50984948D01*
X250980000Y-50704814D01*
X250980000Y-50419186D01*
X251035722Y-50139052D01*
X251145026Y-49875169D01*
X251145027Y-49875167D01*
X251303711Y-49637679D01*
X251505679Y-49435711D01*
X251743167Y-49277027D01*
X251743169Y-49277026D01*
X252007052Y-49167722D01*
X252287186Y-49112000D01*
X252572814Y-49112000D01*
X252852948Y-49167722D01*
G37*
G36*
X214852948Y-49167722D02*
G01*
X215116831Y-49277026D01*
X215116833Y-49277027D01*
X215354321Y-49435711D01*
X215556289Y-49637679D01*
X215714973Y-49875167D01*
X215714974Y-49875169D01*
X215824278Y-50139052D01*
X215880000Y-50419186D01*
X215880000Y-50704814D01*
X215824278Y-50984948D01*
X215714974Y-51248831D01*
X215714973Y-51248833D01*
X215556289Y-51486321D01*
X215354321Y-51688289D01*
X215116833Y-51846973D01*
X215116832Y-51846974D01*
X215116831Y-51846974D01*
X214852948Y-51956278D01*
X214572814Y-52012000D01*
X214287186Y-52012000D01*
X214007052Y-51956278D01*
X213743169Y-51846974D01*
X213743168Y-51846974D01*
X213743167Y-51846973D01*
X213505679Y-51688289D01*
X213303711Y-51486321D01*
X213145027Y-51248833D01*
X213145026Y-51248831D01*
X213035722Y-50984948D01*
X212980000Y-50704814D01*
X212980000Y-50419186D01*
X213035722Y-50139052D01*
X213145026Y-49875169D01*
X213145027Y-49875167D01*
X213303711Y-49637679D01*
X213505679Y-49435711D01*
X213743167Y-49277027D01*
X213743169Y-49277026D01*
X214007052Y-49167722D01*
X214287186Y-49112000D01*
X214572814Y-49112000D01*
X214852948Y-49167722D01*
G37*
G36*
X176852948Y-49167722D02*
G01*
X177116831Y-49277026D01*
X177116833Y-49277027D01*
X177354321Y-49435711D01*
X177556289Y-49637679D01*
X177714973Y-49875167D01*
X177714974Y-49875169D01*
X177824278Y-50139052D01*
X177880000Y-50419186D01*
X177880000Y-50704814D01*
X177824278Y-50984948D01*
X177714974Y-51248831D01*
X177714973Y-51248833D01*
X177556289Y-51486321D01*
X177354321Y-51688289D01*
X177116833Y-51846973D01*
X177116832Y-51846974D01*
X177116831Y-51846974D01*
X176852948Y-51956278D01*
X176572814Y-52012000D01*
X176287186Y-52012000D01*
X176007052Y-51956278D01*
X175743169Y-51846974D01*
X175743168Y-51846974D01*
X175743167Y-51846973D01*
X175505679Y-51688289D01*
X175303711Y-51486321D01*
X175145027Y-51248833D01*
X175145026Y-51248831D01*
X175035722Y-50984948D01*
X174980000Y-50704814D01*
X174980000Y-50419186D01*
X175035722Y-50139052D01*
X175145026Y-49875169D01*
X175145027Y-49875167D01*
X175303711Y-49637679D01*
X175505679Y-49435711D01*
X175743167Y-49277027D01*
X175743169Y-49277026D01*
X176007052Y-49167722D01*
X176287186Y-49112000D01*
X176572814Y-49112000D01*
X176852948Y-49167722D01*
G37*
M02*
